<svg width="26" height="19" viewBox="0 0 26 19" fill="none" xmlns="http://www.w3.org/2000/svg">
<path d="M25.92 12.73V6.47998C22.47 6.47998 19.67 3.67998 19.67 0.22998H13.42C13.42 7.12998 19.02 12.73 25.92 12.73ZM13.42 12.73V6.47998C9.97004 6.47998 7.17004 3.67998 7.17004 0.22998H0.920044C0.930044 7.12998 6.52004 12.73 13.42 12.73Z" fill="#FF6633"/>
<path d="M13.42 18.98H19.67C19.67 15.53 22.47 12.73 25.92 12.73V6.47998C19.02 6.47998 13.42 12.08 13.42 18.98ZM0.920044 18.98H7.17004C7.17004 15.53 9.97004 12.73 13.42 12.73V6.47998C6.52004 6.47998 0.920044 12.08 0.920044 18.98Z" fill="#FF6633"/>
</svg>
