<svg width="20" height="20" viewBox="0 0 20 20" fill="none" xmlns="http://www.w3.org/2000/svg">
<path d="M0.810059 19.8701L2.41003 14.9001C0.0600343 11.4401 0.400081 6.73007 3.27008 3.63007C6.68008 -0.0599256 12.4501 -0.299926 16.1501 3.11007C17.9401 4.76007 18.9801 7.01008 19.0801 9.44008C19.1801 11.8701 18.32 14.2001 16.67 15.9901C13.81 19.0901 9.16007 19.8101 5.51007 17.7601L0.810059 19.8701ZM9.97003 1.66007C9.86003 1.66007 9.74007 1.66007 9.63007 1.67007C7.46007 1.76007 5.45003 2.69007 3.97003 4.29007C1.36003 7.12007 1.09008 11.4401 3.33008 14.5501L3.47003 14.7501L2.39008 18.1101L5.56006 16.6801L5.78009 16.8101C9.07009 18.7801 13.3501 18.1601 15.9501 15.3401C17.4301 13.7401 18.19 11.6601 18.1 9.49007C18.01 7.32007 17.08 5.31008 15.48 3.83008C13.97 2.42008 12.03 1.66007 9.97003 1.66007Z" fill="#006FB9"/>
<path d="M9.19009 10.6202C9.52009 10.9502 10.1901 11.5802 10.6401 11.6902C11.0901 11.8002 11.4301 11.5502 11.7901 11.2402C11.9801 11.0802 12.0601 10.8902 12.5101 10.8102C12.9801 10.7302 14.3001 11.6002 14.6201 11.9802C15.5801 13.1202 14.7201 14.4002 13.4201 14.5102C11.8101 14.6502 9.6601 13.1802 8.1401 11.6602C6.6201 10.1402 5.16006 7.99017 5.29006 6.38017C5.40006 5.08017 6.68009 4.21017 7.82009 5.18017C8.20009 5.50017 9.08007 6.82017 8.99007 7.29017C8.91007 7.74017 8.72008 7.83016 8.56008 8.01016C8.26008 8.37016 8.00007 8.70017 8.11007 9.16017C8.23007 9.62017 8.86009 10.2902 9.19009 10.6202Z" fill="#006FB9"/>
<path d="M0.810059 19.8701L2.41003 14.9001C0.0600343 11.4401 0.400081 6.73007 3.27008 3.63007C6.68008 -0.0599256 12.4501 -0.299926 16.1501 3.11007C17.9401 4.76007 18.9801 7.01008 19.0801 9.44008C19.1801 11.8701 18.32 14.2001 16.67 15.9901C13.81 19.0901 9.16007 19.8101 5.51007 17.7601L0.810059 19.8701ZM9.97003 1.66007C9.86003 1.66007 9.74007 1.66007 9.63007 1.67007C7.46007 1.76007 5.45003 2.69007 3.97003 4.29007C1.36003 7.12007 1.09008 11.4401 3.33008 14.5501L3.47003 14.7501L2.39008 18.1101L5.56006 16.6801L5.78009 16.8101C9.07009 18.7801 13.3501 18.1601 15.9501 15.3401C17.4301 13.7401 18.19 11.6601 18.1 9.49007C18.01 7.32007 17.08 5.31008 15.48 3.83008C13.97 2.42008 12.03 1.66007 9.97003 1.66007Z" fill="#006FB9"/>
<path d="M9.19009 10.6202C9.52009 10.9502 10.1901 11.5802 10.6401 11.6902C11.0901 11.8002 11.4301 11.5502 11.7901 11.2402C11.9801 11.0802 12.0601 10.8902 12.5101 10.8102C12.9801 10.7302 14.3001 11.6002 14.6201 11.9802C15.5801 13.1202 14.7201 14.4002 13.4201 14.5102C11.8101 14.6502 9.6601 13.1802 8.1401 11.6602C6.6201 10.1402 5.16006 7.99017 5.29006 6.38017C5.40006 5.08017 6.68009 4.21017 7.82009 5.18017C8.20009 5.50017 9.08007 6.82017 8.99007 7.29017C8.91007 7.74017 8.72008 7.83016 8.56008 8.01016C8.26008 8.37016 8.00007 8.70017 8.11007 9.16017C8.23007 9.62017 8.86009 10.2902 9.19009 10.6202Z" fill="#006FB9"/>
</svg>
