<svg width="19" height="20" viewBox="0 0 19 20" fill="none" xmlns="http://www.w3.org/2000/svg">
<path d="M0.0200195 19.2502L1.62003 14.28C-0.729974 10.82 -0.389958 6.10995 2.48004 3.00995C5.89004 -0.680052 11.66 -0.919583 15.36 2.49042C17.15 4.14042 18.19 6.39001 18.29 8.82001C18.39 11.25 17.53 13.5803 15.88 15.3703C13.02 18.4703 8.37003 19.1903 4.72003 17.1403L0.0200195 19.2502ZM9.19003 1.04022C9.08003 1.04022 8.96004 1.03999 8.85004 1.04999C6.68004 1.13999 4.67003 2.0701 3.19003 3.6701C0.580033 6.5001 0.310018 10.8204 2.55002 13.9304L2.69003 14.1301L1.61002 17.4904L4.78003 16.0602L5.00003 16.1901C8.29003 18.1601 12.57 17.5404 15.17 14.7204C16.65 13.1204 17.41 11.0403 17.32 8.8703C17.23 6.7003 16.3 4.69014 14.7 3.21014C13.19 1.80014 11.24 1.04022 9.19003 1.04022Z" fill="white"/>
<path d="M8.40002 9.99981C8.73002 10.3298 9.40003 10.9596 9.85003 11.0696C10.3 11.1796 10.64 10.9299 11 10.6199C11.19 10.4599 11.27 10.2697 11.72 10.1897C12.19 10.1097 13.51 10.9797 13.83 11.3597C14.79 12.4997 13.93 13.7799 12.63 13.8899C11.02 14.0299 8.87003 12.5598 7.35003 11.0398C5.83003 9.51985 4.37002 7.36957 4.50002 5.75957C4.61002 4.45957 5.89002 3.58987 7.03002 4.55987C7.41002 4.87987 8.29003 6.19973 8.20003 6.66973C8.12003 7.11973 7.93001 7.20995 7.77001 7.38995C7.47001 7.74995 7.21003 8.07985 7.32003 8.53985C7.45003 8.99985 8.07002 9.66981 8.40002 9.99981Z" fill="white"/>
<path d="M0.0200195 19.2502L1.62003 14.28C-0.729974 10.82 -0.389958 6.10995 2.48004 3.00995C5.89004 -0.680052 11.66 -0.919583 15.36 2.49042C17.15 4.14042 18.19 6.39001 18.29 8.82001C18.39 11.25 17.53 13.5803 15.88 15.3703C13.02 18.4703 8.37003 19.1903 4.72003 17.1403L0.0200195 19.2502ZM9.19003 1.04022C9.08003 1.04022 8.96004 1.03999 8.85004 1.04999C6.68004 1.13999 4.67003 2.0701 3.19003 3.6701C0.580033 6.5001 0.310018 10.8204 2.55002 13.9304L2.69003 14.1301L1.61002 17.4904L4.78003 16.0602L5.00003 16.1901C8.29003 18.1601 12.57 17.5404 15.17 14.7204C16.65 13.1204 17.41 11.0403 17.32 8.8703C17.23 6.7003 16.3 4.69014 14.7 3.21014C13.19 1.80014 11.24 1.04022 9.19003 1.04022Z" fill="white"/>
<path d="M8.40002 9.99981C8.73002 10.3298 9.40003 10.9596 9.85003 11.0696C10.3 11.1796 10.64 10.9299 11 10.6199C11.19 10.4599 11.27 10.2697 11.72 10.1897C12.19 10.1097 13.51 10.9797 13.83 11.3597C14.79 12.4997 13.93 13.7799 12.63 13.8899C11.02 14.0299 8.87003 12.5598 7.35003 11.0398C5.83003 9.51985 4.37002 7.36957 4.50002 5.75957C4.61002 4.45957 5.89002 3.58987 7.03002 4.55987C7.41002 4.87987 8.29003 6.19973 8.20003 6.66973C8.12003 7.11973 7.93001 7.20995 7.77001 7.38995C7.47001 7.74995 7.21003 8.07985 7.32003 8.53985C7.45003 8.99985 8.07002 9.66981 8.40002 9.99981Z" fill="white"/>
</svg>
