<svg width="20" height="20" viewBox="0 0 20 20" fill="none" xmlns="http://www.w3.org/2000/svg">
<path d="M14.27 19.3801H5.58002C2.72002 19.3801 0.390015 17.0501 0.390015 14.1901V5.50006C0.390015 2.64006 2.72002 0.310059 5.58002 0.310059H14.27C17.13 0.310059 19.46 2.64006 19.46 5.50006V14.1901C19.46 17.0501 17.14 19.3801 14.27 19.3801ZM5.58002 1.27006C3.25002 1.27006 1.35999 3.17006 1.35999 5.49006V14.1801C1.35999 16.5101 3.26002 18.4001 5.58002 18.4001H14.27C16.6 18.4001 18.49 16.5001 18.49 14.1801V5.50006C18.49 3.17006 16.59 1.28006 14.27 1.28006H5.58002V1.27006Z" fill="#006FB9"/>
<path d="M9.92999 15.7599C6.66999 15.7599 4.02002 13.1099 4.02002 9.84994C4.02002 6.58994 6.66999 3.93994 9.92999 3.93994C13.19 3.93994 15.84 6.58994 15.84 9.84994C15.84 13.0999 13.19 15.7599 9.92999 15.7599ZM9.92999 4.88994C7.19999 4.88994 4.97998 7.10994 4.97998 9.83994C4.97998 12.5699 7.19999 14.7899 9.92999 14.7899C12.66 14.7899 14.88 12.5699 14.88 9.83994C14.88 7.10994 12.66 4.88994 9.92999 4.88994Z" fill="#006FB9"/>
<path d="M16.6899 4.21007C16.6899 4.70007 16.2899 5.10007 15.7999 5.10007C15.3099 5.10007 14.9099 4.70007 14.9099 4.21007C14.9099 3.72007 15.3099 3.32007 15.7999 3.32007C16.2899 3.32007 16.6899 3.72007 16.6899 4.21007Z" fill="#006FB9"/>
<path d="M14.27 19.3801H5.58002C2.72002 19.3801 0.390015 17.0501 0.390015 14.1901V5.50006C0.390015 2.64006 2.72002 0.310059 5.58002 0.310059H14.27C17.13 0.310059 19.46 2.64006 19.46 5.50006V14.1901C19.46 17.0501 17.14 19.3801 14.27 19.3801ZM5.58002 1.27006C3.25002 1.27006 1.35999 3.17006 1.35999 5.49006V14.1801C1.35999 16.5101 3.26002 18.4001 5.58002 18.4001H14.27C16.6 18.4001 18.49 16.5001 18.49 14.1801V5.50006C18.49 3.17006 16.59 1.28006 14.27 1.28006H5.58002V1.27006Z" fill="#006FB9"/>
<path d="M9.92999 15.7599C6.66999 15.7599 4.02002 13.1099 4.02002 9.84994C4.02002 6.58994 6.66999 3.93994 9.92999 3.93994C13.19 3.93994 15.84 6.58994 15.84 9.84994C15.84 13.0999 13.19 15.7599 9.92999 15.7599ZM9.92999 4.88994C7.19999 4.88994 4.97998 7.10994 4.97998 9.83994C4.97998 12.5699 7.19999 14.7899 9.92999 14.7899C12.66 14.7899 14.88 12.5699 14.88 9.83994C14.88 7.10994 12.66 4.88994 9.92999 4.88994Z" fill="#006FB9"/>
<path d="M16.6899 4.21007C16.6899 4.70007 16.2899 5.10007 15.7999 5.10007C15.3099 5.10007 14.9099 4.70007 14.9099 4.21007C14.9099 3.72007 15.3099 3.32007 15.7999 3.32007C16.2899 3.32007 16.6899 3.72007 16.6899 4.21007Z" fill="#006FB9"/>
</svg>
