<svg width="20" height="20" viewBox="0 0 20 20" fill="none" xmlns="http://www.w3.org/2000/svg">
<path d="M14.49 19.75H5.79999C2.93999 19.75 0.609985 17.4201 0.609985 14.5601V5.87012C0.609985 3.01012 2.93999 0.680176 5.79999 0.680176H14.49C17.35 0.680176 19.68 3.01012 19.68 5.87012V14.5601C19.68 17.4301 17.35 19.75 14.49 19.75ZM5.79999 1.6499C3.46999 1.6499 1.57999 3.55012 1.57999 5.87012V14.5601C1.57999 16.8901 3.47999 18.7798 5.79999 18.7798H14.49C16.82 18.7798 18.71 16.8801 18.71 14.5601V5.87012C18.71 3.54012 16.81 1.6499 14.49 1.6499H5.79999Z" fill="white"/>
<path d="M10.14 16.1299C6.87998 16.1299 4.22998 13.4802 4.22998 10.2202C4.22998 6.96021 6.87998 4.31006 10.14 4.31006C13.4 4.31006 16.05 6.96021 16.05 10.2202C16.06 13.4802 13.4 16.1299 10.14 16.1299ZM10.14 5.27002C7.40998 5.27002 5.18997 7.49021 5.18997 10.2202C5.18997 12.9502 7.40998 15.1699 10.14 15.1699C12.87 15.1699 15.09 12.9502 15.09 10.2202C15.09 7.49021 12.87 5.27002 10.14 5.27002Z" fill="white"/>
<path d="M16.9 4.58984C16.9 5.07984 16.5 5.47998 16.01 5.47998C15.52 5.47998 15.12 5.07984 15.12 4.58984C15.12 4.09984 15.52 3.7002 16.01 3.7002C16.5 3.7002 16.9 4.09984 16.9 4.58984Z" fill="white"/>
<path d="M14.49 19.75H5.79999C2.93999 19.75 0.609985 17.4201 0.609985 14.5601V5.87012C0.609985 3.01012 2.93999 0.680176 5.79999 0.680176H14.49C17.35 0.680176 19.68 3.01012 19.68 5.87012V14.5601C19.68 17.4301 17.35 19.75 14.49 19.75ZM5.79999 1.6499C3.46999 1.6499 1.57999 3.55012 1.57999 5.87012V14.5601C1.57999 16.8901 3.47999 18.7798 5.79999 18.7798H14.49C16.82 18.7798 18.71 16.8801 18.71 14.5601V5.87012C18.71 3.54012 16.81 1.6499 14.49 1.6499H5.79999Z" fill="white"/>
<path d="M10.14 16.1299C6.87998 16.1299 4.22998 13.4802 4.22998 10.2202C4.22998 6.96021 6.87998 4.31006 10.14 4.31006C13.4 4.31006 16.05 6.96021 16.05 10.2202C16.06 13.4802 13.4 16.1299 10.14 16.1299ZM10.14 5.27002C7.40998 5.27002 5.18997 7.49021 5.18997 10.2202C5.18997 12.9502 7.40998 15.1699 10.14 15.1699C12.87 15.1699 15.09 12.9502 15.09 10.2202C15.09 7.49021 12.87 5.27002 10.14 5.27002Z" fill="white"/>
<path d="M16.9 4.58984C16.9 5.07984 16.5 5.47998 16.01 5.47998C15.52 5.47998 15.12 5.07984 15.12 4.58984C15.12 4.09984 15.52 3.7002 16.01 3.7002C16.5 3.7002 16.9 4.09984 16.9 4.58984Z" fill="white"/>
</svg>
