<svg width="154" height="36" viewBox="0 0 154 36" fill="none" xmlns="http://www.w3.org/2000/svg">
<path d="M0.580017 35.8101H9.33002C9.33002 30.9801 13.25 27.0601 18.08 27.0601V18.3101C8.42002 18.3101 0.580017 26.1501 0.580017 35.8101ZM0.580017 18.3101H9.33002C9.33002 13.4801 13.25 9.56006 18.08 9.56006V0.810059C8.42002 0.810059 0.580017 8.65005 0.580017 18.3101Z" fill="#006FB9"/>
<path d="M60.84 9.56005H56.62C52.88 9.56005 50.92 11.28 50.92 15.25V27.0501H54.71V15.25C54.71 13.74 55.45 13.09 56.87 13.09H60.6C62.02 13.09 62.76 13.74 62.76 15.25V27.0501H66.54V15.25C66.54 11.28 64.58 9.56005 60.84 9.56005ZM43.43 27.06H47.22V9.56005H43.43V27.06ZM126.96 15.26V27.06H130.74V15.26C130.74 13.75 131.48 13.1 132.9 13.1H137.38V9.56005H132.65C128.91 9.56005 126.96 11.28 126.96 15.26ZM26.83 15.26V27.06H30.62V21.4801H39.73V17.9401H30.62V15.25C30.62 13.74 31.36 13.09 32.78 13.09H39.73V9.55005H32.53C28.79 9.56005 26.83 11.28 26.83 15.26ZM90.75 9.56005H87.15C85.33 9.56005 84.14 9.99005 83.35 10.9701C82.56 9.98005 81.36 9.56005 79.54 9.56005H75.94C72.2 9.56005 70.24 11.28 70.24 15.25V27.0501H74.03V15.25C74.03 13.74 74.77 13.09 76.19 13.09H79.3C80.72 13.09 81.46 13.74 81.46 15.25V27.0501H85.24V15.25C85.24 13.74 85.98 13.09 87.4 13.09H90.51C91.93 13.09 92.67 13.74 92.67 15.25V27.0501H96.46V15.25C96.45 11.28 94.49 9.56005 90.75 9.56005ZM119.47 27.06H123.26V9.56005H119.47V27.06ZM148.92 16.8301L145.13 16.12C143.84 15.87 143.47 15.17 143.47 14.53C143.47 13.72 144.02 13.1 145.17 13.1H152.34V9.56005H145.94C141.74 9.56005 139.69 11.79 139.69 14.48C139.69 17.3 141.24 19.1601 144.34 19.7901L148.13 20.5101C149.42 20.7601 149.79 21.46 149.79 22.1C149.79 22.91 149.24 23.53 148.09 23.53H139.69V27.07H147.32C151.52 27.07 153.57 24.8401 153.57 22.1501C153.57 19.3201 152.02 17.4601 148.92 16.8301ZM110.07 9.56005H105.85C102.11 9.56005 100.15 11.28 100.15 15.25V27.0501H103.93V21.4701H111.97V27.0501H115.76V15.25C115.77 11.28 113.81 9.56005 110.07 9.56005ZM111.98 17.9401H103.94V15.25C103.94 13.74 104.68 13.09 106.1 13.09H109.83C111.24 13.09 111.99 13.74 111.99 15.25V17.9401H111.98Z" fill="#231F20"/>
</svg>
