<svg width="885" height="439" viewBox="0 0 885 439" fill="none" xmlns="http://www.w3.org/2000/svg">
<path opacity="0.1" d="M86.68 30.21C86.76 30.18 86.8 30.1501 86.8 30.1201C86.8 29.9801 86.74 30.06 86.68 30.21ZM296.92 275.7C296.92 275.7 292.96 274.87 292.79 274.38C292.63 273.89 285.85 267.94 285.7 268.1C285.52 268.26 282.88 265.45 282.55 266.28C282.23 267.11 277.1 267.11 277.1 267.11L271.65 265.78C271.65 265.78 269.34 267.44 269.84 266.77C270.34 266.11 270 262.15 269.84 262.81C269.68 263.46 261.58 259.34 261.58 259.34L258.77 261.82V258.68L254.49 256.04L254.99 252.57L252.99 250.92C252.99 250.92 252.67 251.41 252.5 251.09C252.34 250.76 251.18 244.15 251.18 244.15L244.9 239.03L237.31 238.7L230.37 234.89L228.88 231.43C228.88 231.43 224.91 229.62 224.91 229.12C224.91 228.63 223.77 228.96 223.43 228.79C223.11 228.63 223.27 226.98 223.27 226.98L221.44 225.48L220.79 225.04L219.17 224.55L218.18 223.17C218.18 223.17 221.77 221.56 221.4 221.69C221.04 221.81 213.35 222.92 213.35 222.92L212.61 224.4L209.01 222.55L202.94 222.17C202.94 222.17 198.6 220.44 198.72 219.95C198.85 219.45 197.36 217.59 197.36 217.59C197.36 217.59 196.37 219.95 196.12 220.19C195.88 220.44 192.78 223.04 192.78 223.04L193.02 227.01L190.92 224.77L192.41 222.66V219.69C192.41 219.31 194.27 218.45 194.27 218.45L193.53 216.85C193.53 216.85 191.3 217.47 191.3 217.84C191.3 218.21 188.33 219.94 188.33 219.94L184.73 221.3H183.12C183.12 221.3 181.51 223.9 181.13 224.03C180.76 224.16 180.9 226.51 180.9 226.51C180.9 226.51 176.92 230.96 176.68 230.47C176.43 229.98 172.23 226.51 172.23 226.51L167.26 227.12L164.41 228.61L160.94 226.25L158.22 222.04L158.48 217.09L159.96 211.63L160.58 208.04L156.86 205.31C156.86 205.31 149.3 205.93 149.3 205.56C149.3 205.2 145.2 205.69 145.33 205.31C145.45 204.94 146.82 202.59 146.82 202.21C146.82 201.84 147.82 198.99 147.82 198.99L149.43 195.77L151.53 189.59L152.76 187.47L146.57 187.1L142.85 188.58L140.75 194.78L130.22 197.63L127.62 195.65C127.62 195.65 127.37 196.77 127.5 196.15C127.62 195.53 124.28 191.19 124.28 191.19L122.67 185.13C122.67 185.13 126.89 172.61 126.76 172.86C126.64 173.1 126.89 168.27 126.89 168.27L140.15 159.6L145.22 160.34L146.46 161.58L149.56 161.08L152.66 157.99L156.62 158.49L160.46 157.75L162.82 160.35L166.28 158.99L168.14 160.98L169.26 162.21V164.32L168.39 166.3L169.26 170.76L171.74 174.23L173.35 174.85L175.33 169.4L174.95 164.32L174.09 160.22V157.25L179.17 151.07L185.73 146.35L190.94 143.38L195.53 138.43L195.28 133.72L197.27 133.35L199.23 129.14L201.21 129.37L205.06 124.54L211.49 122.32L215.46 121.58L216.7 120.22L215.21 118.98L218.3 114.39L228.09 110.55L234.04 108.82L229.2 111.92L230.19 114.27L233.78 113.28L236.38 111.67L243.19 109.81C243.19 109.81 244.81 107.08 244.55 107.7C244.31 108.32 248.02 107.08 248.02 107.08L247.28 105.59L247.53 103.61L245.55 104.35L242.56 107.57L237.73 107.33L235.5 103.98L237.6 101.13C237.6 101.13 239.7 96.9199 239.58 97.1699C239.45 97.4099 236.24 96.1699 236.24 96.1699L231.4 97.8999C230.91 97.8999 226.32 100.63 226.44 100.26C226.57 99.89 224.08 101.62 224.08 101.62L230.4 96.55L233.01 96.1699L235.99 93.4399H250.24L255.07 92.45L261.51 88.98L262.01 89.6001L259.28 92.2L255.93 95.6699L252.7 99.1299L251.09 101.24L256.17 101.49C256.17 101.49 260.13 101.59 260.51 101.49C261.01 101.37 261.13 103.22 261.13 103.22L263.23 101.74L264.35 104.59L268.07 101.74L266.95 98.52L267.95 95.54L263.61 95.6699V94.0601C263.61 94.0601 262 92.2 261.88 92.45C261.75 92.7 264.36 90.3501 264.23 90.6001C264.11 90.8501 263.11 89.3601 263.11 89.3601L266.09 85.6299L264.61 81.4199L264.11 79.3201L260.27 77.46L258.91 75.6001L257.17 74.24L258.54 71.02L257.92 68.6699C257.92 68.6699 256.81 60.98 256.69 61.23C256.56 61.48 251.48 65.45 251.48 65.45L246.29 68.0601L243.55 65.7L243.81 62.5901L246.16 60.3601L242.31 59.1201L242.06 58.1299C242.06 58.1299 238.59 54.6599 238.35 54.9099C238.1 55.1699 237.23 56.03 237.23 56.03L229.05 55.28L226.2 60.24L225.58 62.8401C225.58 62.8401 221.1 67.3199 220.55 67.6699C220.88 67.5699 222.97 69.6599 222.97 69.6599L221.11 74.1101L214.05 78.2L210.59 78.7C210.59 78.7 208.48 86.3899 208.6 86.8799C208.72 87.3799 205.75 88.73 205.75 88.73L203.64 90.22L202.77 87.5C202.77 87.5 201.82 85.4199 201.44 84.8899C201.99 85.1199 204.01 85.3899 204.01 85.3899L204.39 83.6499L202.4 83.78L203.27 80.9299L205.13 77.8401L198.68 77.3401L197.21 75.6001L193.98 75.1001L193.72 73.73L191.49 72.3701L188.76 71.1299L185.79 71.5L185.66 68.8999L186.4 66.4199L183.43 65.9299C183.43 65.9299 188.64 60.6001 188.51 60.8501C188.38 61.1001 203.12 53.53 203.12 53.53L204.86 51.6799L207.71 51.4199L213.9 48.5801L218.61 45.3601L219.11 45.6101L215.52 48.95L214.53 50.1799L211.68 51.55L214.28 51.9199L213.9 53.4099L216.76 52.9099L219.61 50.55L221.85 51.3L222.84 52.4099L225.93 52.29L225.81 49.9399L220.98 46.47L219.85 45.3601L219.36 44.1201L221.46 44.3799L223.21 45.8601L225.06 43.99L228.78 43.5L232.5 40.8899L232.26 39.28L235.11 36.5601L233.25 34.5801L238.21 34.46L242.54 34.5801C242.54 34.5801 244.65 33.59 245.03 34.21C245.4 34.83 248.62 37.1799 248.62 37.1799L247.38 38.3L242.29 38.9299L241.05 41.3999L244.78 41.8999L247.62 38.9299L250.71 38.6799L251.21 41.6499C251.21 41.6499 247.74 43.64 247.25 43.76C246.75 43.89 244.64 44.8701 244.64 44.8701L244.52 47.1101L241.17 47.48L237.7 46.8701L236.09 46.99L233.48 49.0901L235.59 50.95C235.59 50.95 238.69 49.7101 239.18 49.3401C239.67 48.9701 241.28 48.2201 241.65 48.8501C242.02 49.4701 244.12 51.2 244.12 51.2L245.87 54.5601L247.48 55.05L252.43 56.6599C252.43 56.6599 255.9 57.53 255.9 57.77C255.9 58.02 255.54 55.6699 255.54 55.6699L252.92 52.5701C252.92 52.5701 252.81 51.6999 253.66 51.9399C254.54 52.1899 256.65 54.04 256.65 54.04C257.01 54.16 259.5 55.6599 259.5 55.6599L260.49 52.9299L262.72 51.5701L261.86 49.96L260.62 48.6001L259.26 46.99L259.38 45.1299C259.38 45.1299 259.75 44.8699 260.12 44.6299C260.49 44.3899 261.6 43.52 261.86 44C262.1 44.5 264.59 47.72 264.59 47.72L266.93 48.21L268.05 46.3601C268.05 46.3601 271.14 45.9801 271.14 46.1101C271.14 46.2301 271.39 44.6299 271.39 44.6299L274.24 43.8899L270.15 40.29L267.92 39.1699L266.18 39.6699L264.58 37.8101L266.31 36.2L267.06 33.96L265.08 31.98L261.98 31.3601L261.23 29.74C261.23 29.74 258.63 29.3701 258.26 29.6101C257.88 29.8701 256.03 27.3799 256.03 27.3799L254.42 25.28C254.17 25.15 253.3 24.2799 252.81 24.4099C252.31 24.5299 247.11 24.6599 247.11 24.6599L245.87 25.03L244.26 23.79L237.81 25.4099L234.47 28.01C234.47 28.01 234.23 26.5199 234.47 26.1499C234.71 25.7799 237.07 24.4199 237.44 24.1699C237.81 23.9199 234.59 23.79 234.59 23.79C234.59 23.79 228.64 25.7799 228.39 26.1499C228.14 26.5199 223.56 30.1101 223.56 30.1101L223.69 33.0901L227.9 33.71L229.51 34.0701L228.39 35.0701L227.53 36.9299L224.81 38.4199L221.46 40.8899L218.61 42L218.12 40.02L220.6 38.53C220.6 38.53 220.1 35.4399 219.86 35.6799C219.61 35.9299 217.01 35.5599 216.89 35.9299C216.77 36.2999 217.02 33.5801 217.02 33.5801L216.89 30.97L216.27 28.98C216.27 28.98 218.38 27.2499 218.74 27.1299C219.11 27.0099 223.08 26.76 223.08 26.76L229.4 23.1699L224.19 22.9299C224.19 22.9299 219.36 23.05 219.11 23.55C218.86 24.05 215.65 27.3899 215.65 27.3899L213.67 28.8799L207.1 32.98L206.85 35.8301L204.13 35.3401L202.15 34.97L197.2 36.95V39.6699L188.14 40.1699C188.14 40.1699 183.81 39.5399 183.81 38.9299C183.81 38.2999 182.2 37.0701 181.71 37.0701C181.21 37.0701 175.63 38.8 175.63 38.8L175.38 40.53L168.94 40.1699C168.94 40.1699 163.61 41.1499 163.74 40.6599C163.86 40.1699 160.89 40.4099 160.89 40.4099L165.35 38.4299L162.26 36.9399L156.68 36.0801L152.72 34.8401L148.27 35.46L147.77 33.6001L143.8 35.21L142.68 32.6101L139.96 33.8501C139.96 33.8501 129.8 35.9501 129.3 36.0801C128.81 36.2101 126.33 35.0901 126.33 35.0901L123.22 36.5701L117.28 36.9399L114.92 35.21L110.09 34.22L104.76 34.47L94.84 32.8501C94.84 32.8501 89.15 31.9801 89.52 31.8501C89.89 31.7301 86.43 30.8601 86.43 30.8601C86.43 30.8601 86.57 30.45 86.68 30.21C85.46 30.72 75.78 32.3501 75.78 32.3501L62.77 36.5701L54.22 38.3C54.22 38.3 54.47 40.5299 54.59 40.8999C54.72 41.2799 55.46 43.75 55.46 43.75L53.11 44.25H50.62L51.87 42.52L39.22 45.99L39.48 47.3501L38.61 48.96L42.58 49.3301L45.93 49.7C45.93 49.7 47.79 48.59 47.79 48.96C47.79 49.33 46.8 52.1699 46.8 52.1699L42.96 52.4199C42.71 52.0499 40.73 52.55 40.73 52.55C40.73 52.55 38.12 54.15 38 53.79C37.88 53.42 32.8 54.6599 32.8 54.6599L26.97 58.01L24.74 61.3501L24.49 63.8201L28.83 63.0801L26.35 66.4299L29.2 66.3C29.2 66.3 32.55 66.3 32.8 66.8C33.05 67.3 34.53 67.05 34.53 67.3C34.53 67.55 5.03999 78.9501 4.78999 78.5801C4.53999 78.2001 0.209991 80.5601 0.209991 80.5601C0.209991 80.5601 5.89999 79.5701 6.27999 79.5701C6.64999 79.5701 15.07 77.5801 15.07 77.5801L19.04 76.46C19.04 76.46 27.59 73.9801 27.71 73.6101C27.84 73.2301 33.79 70.1399 34.16 70.1399C34.53 70.1399 36.51 69.28 36.64 69.77C36.76 70.26 45.19 67.54 45.19 67.54C45.19 67.54 48.16 65.4301 47.92 65.0601C47.66 64.6901 45.93 63.7001 46.43 63.5801C46.92 63.4501 51.38 62.8301 51.38 62.8301C51.38 62.8301 58.08 60.11 57.95 60.48C57.83 60.86 51.14 65.3201 51.14 65.3201L60.68 63.46L64.52 61.8401C64.52 61.8401 67.74 60.36 67.49 60.73C67.24 61.1 71.21 62.2101 71.21 62.5801C71.21 62.9501 79.51 64.2 79.51 64.2L81.99 67.9199L81.49 72.75L81.25 78.8301L85.71 78.3301L84.6 82.29L84.86 88.8601C84.86 88.8601 85.1 91.2101 85.1 91.5801C85.1 91.9501 81.63 90.8401 81.63 90.8401C81.63 90.8401 81.13 93.6901 81.5 94.0601C81.89 94.4301 85.97 98.52 85.97 98.52L84.61 100.26L81.51 107.94L74.2 116.36L72.97 120.96L69.37 124.92L69.99 127.77C69.99 127.77 69 129.76 69.26 130C69.5 130.24 70.99 143.75 70.99 143.75L76.2 146.97L77.56 149.45L78.3 159.61L80.53 164.19L78.06 165.93L80.91 169.89L82.03 170.02L84.27 172.62L83.4 176.09L85.75 177.95L87.99 181.42L88.36 183.15L90.47 181.05L88.36 176.71C88.36 176.71 86.87 173.48 87 172.75C87.12 172 85.02 166.43 85.02 166.43C85.02 166.43 83.03 162.21 83.28 161.84C83.52 161.46 81.78 158.99 81.78 158.99L82.65 153.91L86.24 154.65C86.24 154.65 86.86 159.35 86.86 159.85C86.86 160.34 87.73 163.32 87.73 163.32L92.44 169.88L91.7 173.23L100.74 184.01L100.62 188.35L99.26 190.45L100 193.43L107.56 199L108.8 198.76L111.03 200.99L119.2 205.08L123.29 206.07L128.13 204.58L131.22 206.07L135.93 211.52L140.76 212.75L145.71 214.49H148.08L148.7 217.33C148.7 217.33 150.93 220.18 151.42 220.55C151.91 220.92 151.54 224.15 151.54 224.15L153.64 225.26L156.12 227.87L157.73 229.36L159.47 231.34L160.58 230.6L162.81 231.22L166.02 234.2L168.13 232.95L167.52 230.6L169.49 228.62H171.23L173.09 230.1L172.96 231.84L175.19 235.43L175.32 245.47L173.34 248.7L170.61 250.56L170.49 253.53L167.63 254.64L166.52 258.61L164.78 262.08L165.15 265.05L167.63 267.28L165.39 269.65L163.78 272L165.25 276.7C165.25 276.7 165.99 279.06 165.99 278.81C165.99 278.56 168.36 280.43 168.36 280.43L172.69 289.09L176.9 295.17C176.9 295.17 183.02 307.5 183.14 307.6C184.99 308.96 198.47 318.67 198.47 318.67L200.77 330.73L201.44 356.17L203.42 363.45L202.59 378.16L201.94 381.13C201.94 381.13 204.58 385.75 204.58 386.42C204.58 387.08 205.07 392.86 205.07 392.86L206.88 399.14L209.03 398.98L207.71 395.35L209.37 395.52L210.52 401.3L210.68 403.61L209.37 402.45L208.21 403.61L207.38 404.61L209.03 406.1L208.21 408.4L207.88 411.38L210.19 411.71L211.84 413.03L210.19 415.84C210.19 415.84 220.43 433.85 229.02 435.99C237.61 438.15 240.09 438.8 240.09 438.8L243.73 436.82L244.87 435.34L237.28 432.7L231.5 426.41L230.34 423.11L232.16 421.79L231.83 419.31C231.83 419.31 231.83 417.5 232.48 417C233.15 416.51 234.47 414.03 234.47 414.03L232.48 413.04L229.18 409.74L229.51 405.93L231.5 404.78C231.5 404.78 231.66 402.63 231.33 402.13C230.99 401.64 231.83 399.15 232.32 398.99C232.82 398.82 234.13 396.84 234.13 396.84H231.83L230.51 396.35L228.85 393.71V391.72L231.66 392.55L234.31 392.05L235.79 389.9C235.79 389.9 235.29 388.58 235.13 388.09C234.96 387.6 235.46 385.44 235.95 385.28C236.44 385.12 239.42 385.45 239.42 385.45L245.04 383.97C245.04 383.97 247.19 380.16 247.03 379.51C246.86 378.85 246.86 376.7 246.86 376.7C246.86 376.7 246.86 375.22 245.54 375.04C244.21 374.88 244.21 374.39 243.88 373.06C243.54 371.74 242.55 370.26 242.55 370.26L240.9 370.59L242.39 369.11L245.69 371.58L250.64 372.42L254.44 368.61L257.09 362.16L258.24 357.37H260.71L263.35 352.58L264.35 348.12L263.52 342.66L264.68 340.69L273.27 334.91L279.72 332.76L281.88 331.1C281.88 331.1 285.17 326.65 285.17 326.15C285.17 325.65 286.5 319.21 286.5 319.21C286.5 319.21 287.98 311.62 287.81 311.13C287.65 310.63 288.15 304.02 287.81 303.86C287.48 303.7 287.98 301.87 287.98 301.87L294.26 292.95L297.23 286.17C297.23 286.17 299.39 282.7 299.05 282.05C298.73 281.32 296.92 275.7 296.92 275.7ZM362.26 33.8401C362.26 33.8401 363.26 28.8799 362.52 28.3799C361.77 27.8899 365.49 24.9099 365.49 24.9099C365.49 24.9099 370.93 22.4299 371.18 21.6899C371.43 20.9399 369.7 21.1799 369.7 21.1799L370.19 17.47L373.67 16.23C373.67 16.23 371.69 13.25 371.19 11.76C370.7 10.29 377.14 9.54004 377.14 9.54004L388.54 4.34009L374.92 5.82007L374.42 4.09009L360.04 0.870117L331.3 1.87012L328.08 3.6001H318.15L304.28 4.84009C304.28 4.84009 291.15 6.57006 290.4 7.06006C289.66 7.56006 291.89 8.30005 291.89 8.30005L291.64 10.04L275.52 12.03L274.53 13.76C274.53 13.76 276.26 15.49 276.51 15.74C276.75 15.99 283.45 17.47 283.45 17.47L291.38 18.46C291.38 18.46 295.84 20.4399 296.58 21.1799C297.33 21.9199 297.09 24.1599 296.84 25.3999C296.58 26.6399 295.85 26.8801 294.86 28.3701C293.86 29.8601 296.84 29.1101 296.84 29.1101L300.31 30.8401C300.31 30.8401 299.32 30.8401 297.83 31.1001C296.34 31.3501 294.36 31.8301 294.36 31.8301L294.11 34.5701L299.07 33.5801L298.56 35.3101L295.1 36.05L291.64 40.26L291.39 48.1899L292.13 54.8799L294.11 60.3301L297.33 60.8301L301.05 63.0601L306.01 62.8101L310.96 56.1201L316.16 51.1599L317.65 48.4399L320.13 46.96L325.57 45.72L332.51 44.23C332.51 44.23 338.94 40.02 339.7 39.52C340.44 39.03 358.28 33.5801 358.28 33.5801L362.26 33.8401ZM367.22 51.9199L374.16 49.6899L375.64 46.97L372.92 44.74L360.27 46.22L356.55 43.98L352.1 46.46C352.1 46.46 354.33 47.4499 355.07 47.9399C355.81 48.4399 357.3 47.45 357.3 47.45V49.6799C357.3 49.6799 361.27 51.9099 360.76 52.6599C360.28 53.4099 367.22 51.9199 367.22 51.9199ZM379.44 85.7L378.04 86.6201L377.63 88.1899L378.87 88.9299L380.85 89.3401L382.91 88.8401L384.66 87.8501L385.15 87.3601L388.04 87.1799L388.37 85.95L389.04 84.71V81.1599L390.61 80.25L390.11 77.9399L387.64 77.3601L385.66 77.03L384.34 77.4399L383.58 78.51C383.58 78.51 382.36 79.8301 382.6 79.5801C382.86 79.3401 383.51 79.34 383.35 79.75C383.18 80.16 382.51 80.5701 382.51 80.5701H381.54L380.7 80.0701L379.47 80.23L379.05 80.97L379.56 82.1299L378.72 82.96L379.71 83.79L380.7 84.03L380.55 85.1899L379.44 85.7ZM389.27 75.96C389.85 76.2 390.09 76.54 390.01 76.78C389.94 77.04 391.25 77.2 391.25 77.2L392.33 76.96L391.59 78.1201C391.59 78.1201 391.75 78.86 392 79.2C392.26 79.53 393.08 79.2 393.08 79.2C393.08 79.2 395.06 78.87 395.31 78.95C395.55 79.03 395.22 79.78 395.22 79.78L395.97 80.9299C395.97 80.9299 396.37 82.5801 396.46 83.0801C396.55 83.5801 395.8 83.4099 395.8 83.4099C395.8 83.4099 394.24 83.6601 393.9 83.5801C393.57 83.5001 392.92 84.1501 392.34 84.8101C391.76 85.4801 392.42 85.23 392.42 85.23H393.65C393.65 85.23 393.75 86.0499 393.82 86.3899C393.89 86.7199 392.83 87.04 392.5 86.96C392.17 86.88 390.68 87.6299 390.68 87.6299L390.76 88.8701L392.58 89.03L394.4 89.28L394.73 89.8601C394.73 89.8601 393.56 90.1101 393.24 89.8601C392.91 89.6101 391.92 91.1799 391.92 91.1799L391.01 92.1699L389.1 93.6499L390.17 94.1499L390.83 93.3201L392.49 93.3999L394.29 93.1499C394.29 93.1499 395.37 91.8301 395.62 91.8301C395.86 91.8301 398.43 91.75 398.43 91.75C398.43 91.75 400.5 91.34 400.74 91.5C400.99 91.67 402.64 92.0001 402.9 92.0801C403.14 92.1601 406.36 91.1699 406.36 91.1699C406.36 91.1699 407.02 90.1 407.18 89.77C407.35 89.44 406.28 89.1101 406.03 88.8601C405.78 88.6101 406.85 88.28 407.35 88.04C407.84 87.79 408.01 86.88 408.26 86.47C408.5 86.06 407.93 85.22 407.84 84.98C407.76 84.72 406.6 84.8 406.27 84.72C405.94 84.64 404.54 84.8 404.54 84.8L404.61 83.1499C404.61 83.1499 400.73 77.8701 400.81 77.6201C400.89 77.3801 399.9 75.8 399.49 75.73C399.08 75.65 398.58 75.2999 398.08 74.6499C397.59 73.9899 398.74 73.1599 398.74 73.1599C398.74 73.1599 400.14 71.6801 400.31 71.3501C400.48 71.0201 400.14 70.03 399.9 69.95C399.65 69.87 396.77 70.03 396.77 70.03C396.77 70.03 395.95 69.3701 396.02 69.1201C396.11 68.8601 396.93 68.78 397.18 68.78C397.41 68.78 398.91 65.9001 399.24 65.8101C399.57 65.7201 398.99 64.98 398.99 64.98L397.84 65.46L396.77 67.04C396.77 67.04 395.77 67.29 395.37 67.04C394.96 66.79 394.13 67.04 393.8 66.96C393.47 66.87 392.72 67.95 392.72 67.95C392.72 67.95 391.58 69.19 391.24 69.27C390.91 69.35 389.75 70.67 389.84 70.75C389.93 70.83 390 71.9099 390 71.9099C390 71.9099 389.75 72.3199 389.34 72.3999C388.93 72.4799 389.67 73.8799 389.67 73.8799L390.67 74.3799C390.67 74.3799 390.08 74.9499 389.76 74.8799C389.43 74.7999 388.69 75.72 389.27 75.96ZM777.83 58.04C777.83 57.97 777.79 57.97 777.72 58.01C777.8 58.07 777.83 58.09 777.83 58.04ZM676.41 203.84C676.58 203.59 678.88 202.44 678.96 201.85C679.05 201.28 680.7 207.23 680.7 207.23L681.87 211.36C681.87 211.36 682.77 214.33 683.1 214.91C683.43 215.49 683.92 219.29 683.92 219.62C683.92 219.95 685.01 222.17 684.51 222.42C684 222.67 683.19 222.5 683.35 222.83C683.52 223.16 683.92 224.98 683.92 225.32C683.92 225.65 683.68 227.87 683.52 228.28C683.35 228.69 683.27 229.77 683.27 230.26C683.27 230.76 683.59 231.68 683.59 231.92C683.59 232.17 683.85 232.58 683.85 232.58C683.85 232.58 684.19 232.75 684.34 232.33C684.51 231.92 685.75 231.75 685.92 231.92C686.08 232.09 687.98 234.31 688.15 234.98C688.31 235.64 690.38 238.86 690.62 239.19C690.87 239.52 691.95 240.6 691.28 241.5C690.62 242.41 690.62 242.57 690.71 243.07C690.79 243.56 691.04 245.38 691.86 246.38C692.7 247.36 694.42 249.26 694.42 249.26C694.42 249.26 696.57 250.76 696.91 251.17C697.23 251.58 699.63 251.83 699.89 252.81C700.13 253.8 700.79 254.8 700.79 254.8C700.79 254.8 702.69 255.37 702.69 255.63C702.69 255.42 702.68 252.54 702.45 252.15C702.21 251.75 700.23 247.7 699.97 247.45C699.73 247.2 699.32 246.62 699.56 245.56C699.81 244.47 699.39 241.66 699.39 241.66L695.51 237.03C695.51 237.03 692.12 233.72 692.04 233.89C691.96 234.05 689.39 232.9 689.49 231.91C689.56 230.92 689.22 228.45 688.48 227.87C687.75 227.3 687.08 226.38 686.51 226.05C685.94 225.71 686.35 222.58 686.51 222.16C686.67 221.75 687.99 218.12 687.92 217.88C687.83 217.63 688.25 214.25 688.25 214.25C688.25 214.25 689.32 212.83 689.57 213.33C689.83 213.82 690.98 213.33 690.64 214.82C690.31 216.32 690.48 217.23 690.48 217.23L693.45 216.65L695.52 218.8L697.01 220.78L698.91 221.94C698.91 221.94 699.4 224.17 699.65 224.33C699.9 224.5 701.14 223.84 701.14 223.84L703.04 225.17C703.04 225.17 701.96 227.15 702.22 227.65C702.46 228.14 702.7 229.87 702.7 229.87L704.52 228.38L706.84 226.65L708 225L708.41 223.76L711.71 222.35L714.85 219.46L714.77 213.34L713.78 209.55L710.97 205.58L705.51 200.13L703.37 197.49C703.37 197.49 701.88 195.59 701.96 195.1C702.04 194.6 702.37 191.96 702.37 191.96L703.87 190.55L706.76 187.66C706.76 187.66 708.74 186.34 709.07 186.67C709.4 187 712.04 186.92 712.12 187.16C712.2 187.41 712.54 187.33 712.36 187.82C712.19 188.31 712.44 190.55 712.69 190.8C712.95 191.05 713.53 191.29 713.77 191.38C714 191.46 714.84 191.13 714.93 190.64C715.02 190.15 714.84 188.41 714.93 188C715.02 187.59 715.18 187.59 715.43 187.51C715.68 187.43 716.91 187.51 716.91 187.51L718.24 186.19L720.55 187.02L723.03 184.87C723.03 184.87 724.36 184.63 724.52 184.79C724.68 184.96 726.84 183.14 726.84 183.14L729.07 182.64L731.05 181.81C731.05 181.81 731.88 179.91 731.88 180.15C731.88 180.4 736.68 175.37 736.68 175.37L738.25 171.49L740.15 165.96L741.31 159.1L741.4 157.12C741.4 157.12 739.58 158.6 739.34 158.69C739.09 158.77 737.61 158.36 737.61 158.36L738.76 156.29C738.76 156.29 739.42 154.81 739.09 154.72C738.76 154.63 737.11 154.14 737.11 154.14C737.11 154.14 737.82 152.51 737.93 152.41C737.78 152.41 735.06 149.6 735.06 149.6C735.06 149.6 731.42 144.4 731.25 144.81C731.08 145.22 728.28 142.83 728.02 142.83C727.78 142.83 727.61 142.91 727.45 142.42C727.28 141.92 729.93 138.45 730.01 138.2C730.09 137.96 732.4 135.39 732.82 135.48C733.22 135.56 734.63 135.64 734.63 135.64C734.63 135.64 734.29 133.99 734.05 133.91C733.81 133.83 728.19 133.33 728.19 133.33C728.19 133.33 725.96 134.65 725.88 134.98C725.78 135.31 723.98 135.15 723.98 135.15L723.73 133.25L721.49 132.18L718.94 131.27L719.03 129.53C719.03 129.53 720.59 128.96 720.84 128.78C721.09 128.61 723.07 127.63 723.23 126.8C723.4 125.97 724.72 124.65 724.89 124.4C725.05 124.15 726.12 123.24 726.36 123.41C726.62 123.57 728.19 124.73 728.02 124.81C727.86 124.89 726.79 126.63 727.03 127.12C727.29 127.62 728.44 129.11 728.28 129.36C728.12 129.61 727.62 130.52 727.62 130.52L728.86 130.35C728.86 130.35 730.43 129.11 730.34 128.95C730.26 128.77 731.58 127.38 731.83 127.38C732.08 127.38 734.81 126.79 734.88 127.04C734.97 127.29 737.7 127.95 737.7 127.95L738.2 132.91C738.2 132.91 744.81 134.48 744.81 134.89C744.81 135.3 744.06 135.96 744.06 135.96C744.06 135.96 743.98 137.28 744.31 137.45C744.64 137.61 745.71 138.52 745.96 138.85C746.22 139.18 746.71 141.42 746.71 141.42C746.71 141.42 745.81 143.4 745.96 143.65C746.12 143.9 747.78 145.38 747.78 145.38L752.49 143.56C752.49 143.56 755.04 141.58 755.04 141.33C755.04 141.08 752.32 134.47 752.32 134.47L746.04 130.16L743.32 127.93L747.11 124.22L746.78 121C746.78 121 747.61 117.85 747.77 117.85C747.94 117.85 750.25 116.2 750.25 116.2L752.89 118.03L756.86 115.55L759.09 107.55L759.17 97.1299L755.62 90.77C755.62 90.77 753.97 86.8899 753.71 86.8899C753.46 86.8899 751.07 83.1699 751.07 83.1699L745.54 80.7L743.14 80.6201L741.66 83.0901L740.1 81.1899L737.95 77.3899L738.19 79.7C738.19 79.7 738.52 81.18 738.42 81.51C738.36 81.84 736.78 79.4399 736.78 79.4399C736.78 79.4399 734.14 78.95 733.97 78.95C733.81 78.95 732.48 78.2 732.48 78.2C732.48 78.2 736.38 73.6701 736.04 73.8301C735.71 73.9901 736.7 68.05 736.7 68.05C736.7 68.05 738.1 65.2399 738.18 65.3999C738.27 65.5699 743.62 64.8201 743.62 64.8201C743.62 64.8201 753.45 64.6601 753.37 64.8201C753.29 64.9901 758.17 64.5 758.17 64.5C758.17 64.5 758.33 65.9001 758.75 66.0701C759.15 66.2301 763.12 65.98 763.12 65.98L766.01 65.3201L767.41 65.1499C767.41 65.1499 765.68 63.4199 765.43 63.4199C765.18 63.4199 763.53 62.6701 763.37 62.5901C763.2 62.5101 764.61 59.3799 764.52 58.8799C764.44 58.3799 764.28 56.6501 764.93 56.8201C765.59 56.9901 770.06 56.99 770.06 56.99C770.06 56.99 771.87 58.72 771.87 59.22C771.87 59.71 774.76 61.45 774.76 61.45C774.76 61.45 776.33 59.7199 776.49 59.3899C776.63 59.1299 777.46 58.2 777.78 58.04C777.38 57.71 776.08 56 776.08 56C776.08 56 777.48 54.43 778.22 55.25C778.97 56.08 780.62 59.6299 780.62 59.6299C780.62 59.6299 779.13 63.3399 779.13 63.6799C779.13 63.9999 778.56 67.3999 778.56 67.6499C778.56 67.8899 776.91 69.3799 776.91 69.3799C776.91 69.3799 776.09 69.38 776.09 69.79C776.09 70.2 777.23 72.4299 777.23 72.4299C777.23 72.4299 777.66 74.9999 777.89 75.1499C778.14 75.3299 786.41 82.51 786.41 82.51L791.77 87.8101L795.25 90.6899L796.24 90.45C796.24 90.45 797.07 86.4101 796.74 86.5601C796.41 86.7301 795.08 85.3301 795.26 85.0901C795.42 84.8301 795.75 83.67 796.16 83.75C796.58 83.84 797.82 84.0801 797.82 84.0801L795.34 80.9399L796.16 79.21L798.07 79.79L795.51 77.0701L794.19 74.4199C794.19 74.4199 795.59 74.75 795.69 74.99C795.76 75.25 797.26 73.9301 796.76 73.8401C796.26 73.7501 793.29 72.6799 793.29 72.4299C793.29 72.1899 791.56 71.7699 791.47 71.4399C791.4 71.1099 791.8 69.79 791.57 69.79C791.32 69.79 788.76 68.6299 788.76 68.6299L787.1 68.8701L786.19 67.0601L786.68 65.6599C786.68 65.6599 785.1 63.41 784.95 63.27C785.08 63.38 788.48 62.0799 788.8 61.9399C788.78 61.9899 790.41 61.8099 790.55 62.4299C790.72 63.0999 791.46 63.76 791.46 63.76L793.2 62.1101C793.2 62.1101 794.44 61.03 794.93 61.28C795.43 61.53 797.82 62.0301 798.16 62.3601C798.45 62.6601 799.96 63.0901 800.19 63.3601C800.17 63.0101 800.22 61.9399 800.22 61.9399L800.29 61.03L802.62 57.8899C802.62 57.8899 803.52 56.5699 804.35 56.3999C805.18 56.2399 806.9 54.76 807.23 55.01C807.56 55.25 810.3 55.1799 810.63 55.9199C810.95 56.6599 812.44 55.6699 812.44 55.6699C812.44 55.6699 811.03 53.9401 810.95 54.1001C810.87 54.2601 806.32 52.2801 806.07 52.3701C805.82 52.4401 802.77 50.55 802.77 50.55C802.77 50.55 801.19 49.97 801.12 49.97C801.04 49.97 802.35 49.3099 802.84 49.1399C803.34 48.9799 804.5 47.4099 804.5 47.4099C804.5 47.4099 803.93 46.34 803.59 46.01C803.26 45.68 805.41 45.93 806.15 46.26C806.89 46.59 810.62 46.75 810.53 47C810.44 47.24 813.01 47.2399 812.92 47.9099C812.84 48.5699 813.83 48.7301 814.16 49.0701C814.49 49.4001 817.63 49.9 817.8 49.98C817.95 50.06 821.09 49.73 821.09 50.22C821.09 50.72 822.09 50.1399 822.09 50.1399C822.09 50.1399 821.6 47.7499 821.02 47.9099C820.44 48.0699 819.36 47.2501 820.11 47.0901C820.86 46.9301 822.26 46.0999 821.85 45.9299C821.43 45.7699 820.77 44.94 819.78 44.52C818.79 44.11 814.83 43.2101 814.41 43.3601C814 43.5301 807.8 42.03 807.4 42.03C806.98 42.03 804.83 41.46 804.83 41.46L783.68 35.76C783.68 35.76 770.55 34.3601 770.62 34.1001C770.71 33.8601 763.02 33.1899 763.02 33.1899L767.57 36.99L763.02 36.3301C763.02 36.3301 757.41 35.4199 757.24 35.1699C757.07 34.9299 741.54 34.8401 741.54 34.8401L739.23 32.3501C739.23 32.3501 731.79 31.12 731.54 31.04C731.29 30.95 722.04 31.04 722.04 31.04L714.29 29.8799C714.29 29.8799 709.08 27.6399 707.92 27.8999C706.76 28.1499 695.37 27.1601 694.7 26.8201C694.04 26.4901 689.51 27.1499 689.51 27.1499L693.21 29.96L687.11 29.79L681 29.71L678.68 28.5601L678.78 31.95C678.78 31.95 677.04 32.2701 677.04 31.8601C677.04 31.4501 671.67 29.55 671.67 29.55C671.67 29.55 667.2 25.5901 667.13 25.8401C667.04 26.0801 659.88 24.4299 659.88 24.4299L655.4 23.6101C655.4 23.6101 654.08 24.18 654.24 24.52C654.41 24.85 656.14 26 655.89 26.25C655.64 26.49 652.92 26 652.92 26L645.9 25.75L644.65 24.4299L635.4 24.51C635.4 24.51 631.93 21.7799 631.85 21.9399C631.78 22.1099 629.21 22.53 629.21 22.53L627.23 24.6699L621.62 25.0801L627.66 21.8601L629.81 20.29C629.97 19.87 628.31 17.39 627.99 17.72C627.66 18.05 622.94 16.5601 622.7 16.5601C622.46 16.5601 615.35 16.3899 615.35 16.3899C614.85 16.3099 612.63 16.3899 612.63 16.3899C612.63 16.3899 611.8 14.0799 611.39 14.1599C610.98 14.2399 605.6 14.0801 605.6 14.0801C605.6 14.0801 600.81 15.0701 600.63 15.5601C600.48 16.0601 601.55 16.55 601.55 16.55C601.55 16.55 598.99 18.45 598.74 18.28C598.5 18.11 591.05 18.1101 591.05 18.1101C591.05 18.1101 580.73 20.3401 580.73 20.0901C580.73 19.8801 577.64 21.2 576.92 21.51C577.53 22.04 579.69 23.2801 579.41 23.5701C579.08 23.9001 572.14 24.23 571.89 23.73C571.67 23.28 568.92 24.3199 568.49 24.3899C568.99 24.5999 572.24 27.14 572.47 27.53C572.72 27.94 573.31 28.5199 574.12 28.1899C574.95 27.8599 575.69 27.5301 575.86 27.8601C576.03 28.1901 575.86 28.9299 575.86 28.9299C575.86 28.9299 573.79 29.3401 573.55 29.3401C573.31 29.3401 570.82 27.9301 570.57 27.8501C570.33 27.7701 567.02 27.02 566.6 27.02C566.18 27.02 564.36 27.27 564.36 27.27C564.36 27.27 562.96 28.5099 563.29 28.6799C563.63 28.8399 564.46 30.41 564.71 30.25C564.95 30.08 566.44 29.4199 566.52 30.1699C566.61 30.8999 564.79 31.49 564.79 31.49C564.79 31.49 562.3 30.49 562.22 30.25C562.14 29.99 560.98 28.6001 560.98 27.8501C560.98 27.1101 559.5 24.4699 559.08 24.8799C558.67 25.2899 557.18 25.46 557.18 25.46L559 27.1101C559 27.1101 560.56 28.43 560.15 28.51C559.74 28.59 558.58 29.25 558.51 29.5C558.42 29.75 557.52 31.1499 558.59 31.1499C559.66 31.1499 561.4 32.8101 561.4 32.8101C561.4 32.8101 561.48 35.0401 561.64 35.3701C561.81 35.7001 564.36 37.4299 564.36 37.4299C564.36 37.4299 565.94 36.4399 566.17 36.1899C566.43 35.9399 568.58 35.53 569.07 36.02C569.57 36.51 568.07 37.75 567.67 37.51C567.25 37.26 566.35 37.0099 565.94 37.1799L565.52 37.3401C565.52 37.3401 564.95 38.5801 565.52 38.8301C566.1 39.0801 566.86 39.9101 566.77 40.3201C566.68 40.7301 565.12 43.54 565.12 43.54L562.8 44.03C561.97 43.87 560.66 43.29 560.66 43.29L563.14 41.3899L563.47 38.8201C563.47 38.8201 563.56 38.6601 562.9 38.0801C562.23 37.5101 559.92 35.4399 559.92 35.4399C559.92 35.4399 558.52 33.1199 558.52 32.8799C558.52 32.6199 557.86 31.3899 557.86 31.3899C557.86 31.3899 556.29 30.32 555.96 30.24C555.64 30.16 555.64 29.24 555.89 28.75C556.13 28.25 555.64 26.0301 555.55 26.3501C555.45 26.6801 552.65 26.2699 552.32 26.1899C551.99 26.1099 551.25 25.2 551.25 25.2C551.25 25.2 550.84 23.7999 550.17 24.3799C549.52 24.9599 548.36 25.2 548.36 25.2L547.2 28.25L547.53 29.49L545.22 31.0601C545.22 31.0601 547.17 32.7401 547.35 32.8701C547.21 32.8001 547.45 34.54 547.53 34.95C547.6 35.36 551.08 36.27 551.08 36.27C551.08 36.27 552.9 37.01 553.06 37.75C553.23 38.49 552.56 39.3999 552.56 39.3999L549.02 37.75L541.16 35.28C541.16 35.28 533.57 34.79 533.73 34.54C533.9 34.29 530.83 32.55 530.83 32.55L529.09 33.46C529.09 33.46 530.74 34.62 531 34.7C531.25 34.79 533.72 35.7 533.72 35.7C533.72 35.7 534.47 36.11 534.63 36.77C534.8 37.43 533.23 38.25 533.23 38.25C533.23 38.25 532.16 37.0901 532.16 36.8501C532.16 36.6001 531.9 35.61 531.58 35.77C531.25 35.94 528.19 37.51 528.19 37.51C528.19 37.51 524.72 37.5899 524.3 37.9199C523.89 38.2499 521.66 39.8199 521.49 39.4099C521.32 38.9999 521.82 37.2599 521.74 36.9299C521.65 36.5999 518.27 37.51 518.27 37.51C518.27 37.51 513.9 38.9101 513.73 39.3201C513.57 39.7401 511.59 40.15 511.25 40.23C510.92 40.31 510.51 40.3101 510.51 40.3101C510.51 40.3101 508.78 41.39 509.1 41.96C509.43 42.54 506.7 42.8701 506.7 42.8701C506.7 42.8701 504.97 41.8001 504.89 41.5601C504.81 41.3301 506.77 40.0199 506.95 39.9099C506.7 40.0699 504.89 37.7599 504.64 37.6799C504.42 37.6099 499.93 37.73 499.13 37.7C499.65 37.89 501.25 39.4399 501.25 39.6699C501.25 39.9199 501.5 42.3201 501.5 42.3201C501.5 42.3201 502.81 43.15 503.06 43.05C503.31 42.98 502.81 44.46 502.81 44.46L500.59 44.21C500.59 44.21 499.67 42.8799 498.93 43.6299C498.19 44.3799 495.71 46.28 495.55 46.03C495.38 45.78 493.98 46.28 494.06 46.77C494.15 47.27 495.22 48.3401 495.22 48.3401C495.22 48.3401 493.65 49.6599 493.81 49.1699C493.98 48.6699 489.52 47.5201 489.19 47.6001C488.85 47.6801 486.95 48.26 486.95 48.26L487.77 49.6599C487.77 49.6599 490.25 49.8201 490.58 50.3201C490.92 50.8101 490.01 51.8 489.75 51.8C489.52 51.8 483.73 49.0801 483.73 49.0801C483.73 49.0801 481.83 47.1 482.4 46.53C482.99 45.95 483.48 45.05 482.4 45.05C481.33 45.05 480.18 44.2199 480.1 43.8899C480.01 43.5599 486.61 44.5601 486.61 44.5601L490.42 44.97C490.42 44.97 489.93 45.47 491.41 44.97C492.89 44.47 495.37 43.2299 495.7 43.1599C496.03 43.0599 496.44 41.5 496.44 41.5L495.95 40.1001L481.75 36.72C481.75 36.72 477.03 35.3201 476.95 35.0701C476.87 34.8201 472.74 34.3999 472.74 34.3999L470.75 34.6599L472.41 32.5901C472.41 32.5901 465.96 30.6799 465.8 30.9299C465.63 31.1799 462.99 32.4299 462.99 32.4299L458.04 31.6001L451.67 33.0801L445.22 34.6499L435.89 38.6101L439.36 38.9399L437.86 41.5L433.73 44.5701L431.43 48.3601L431.1 50.4299L428.87 52.8201C428.87 52.8201 427.3 51.9999 426.97 51.6699C426.64 51.3299 421.18 53.23 421.18 53.23L417.88 56.3701C417.88 56.3701 417.05 57.9401 416.89 58.3601C416.72 58.7801 417.14 63.1499 417.14 63.1499C417.14 63.1499 419.12 63.15 418.54 63.73C417.96 64.3 418.04 66.95 418.04 66.95L420.36 68.51C420.36 68.51 423.41 69.5099 423.84 69.4199C424.24 69.3399 425.73 68.3499 425.99 68.1799C426.22 68.0199 428.05 66.2 428.63 66.28C429.21 66.37 430.69 64.71 430.86 65.3C431.02 65.88 431.36 67.9399 431.68 68.4399C432.01 68.9399 433.16 69.84 433.66 70.99C434.15 72.15 434.83 73.31 434.66 73.55C434.49 73.81 433.33 74.95 433.33 74.95C433.33 74.95 430.86 75.2801 430.52 75.6201C430.19 75.9501 429.78 76.11 429.53 75.95C429.27 75.78 430.35 74.6201 430.6 74.3101C430.85 73.9701 430.02 72.65 429.69 72.73C429.35 72.82 429.03 71.99 429.35 71.74C429.69 71.49 429.6 69.9199 429.6 69.9199C429.6 69.9199 429.1 69.67 428.86 69.76C428.61 69.84 425.72 71 425.72 71C425.72 71 424.15 72.65 424.07 72.98C423.98 73.32 423.32 75.05 423.74 76.28C424.15 77.53 425.14 79.51 425.14 79.51C425.14 79.51 426.2 80.2501 425.8 80.5801C425.39 80.9101 424.56 82.1499 424.56 82.1499L422.59 82.23C422.59 82.23 419.04 82.6501 418.7 82.8101C418.37 82.9801 414.91 84.0499 415.06 84.3799C415.23 84.7099 414.31 88.27 414.31 88.27C414.15 88.35 410.68 90.8301 410.27 90.8301C409.86 90.8301 407.3 91.49 407.3 91.49C407.3 91.49 406.14 94.5499 406.06 94.3799C405.98 94.2099 402.17 96.2 402.17 96.2C402.17 96.2 399.28 95.37 399.2 95.04C399.12 94.71 398.12 93.97 398.04 94.22C397.95 94.47 399.03 97.04 399.03 97.54C399.03 98.02 399.2 99.0199 398.87 98.6899C398.54 98.3499 396.89 97.87 396.56 97.7C396.22 97.54 393.42 97.6101 393.42 97.6101H392.26C392.26 97.6101 390.85 98.8501 390.77 98.6001C390.69 98.3501 390.61 99.6799 390.61 99.6799L391.43 100.5L394.41 101.74L397.22 103.48L398.29 106.12L399.53 108.6C399.53 108.6 398.7 113.72 398.55 113.98C398.37 114.22 396.64 115.39 396.64 115.39L391.27 115.3C391.27 115.3 388.63 114.73 388.38 114.64C388.13 114.55 384.41 115.13 384.34 114.8C384.26 114.47 383.1 114.55 383.1 114.55L382.52 113.89H381L379.76 115.29L377.94 115.38V116.86C377.94 116.86 378.68 120.25 378.6 120.01C378.52 119.75 378.27 123.97 378.27 123.97C378.27 123.97 376.48 127.56 376.3 127.83C376.34 127.94 376.2 130.25 376.2 130.25L377.28 131.99L377.44 134.05C377.44 134.05 376.61 135.95 376.94 135.78C377.27 135.61 379.92 135.86 379.99 135.53C380.07 135.2 381.65 134.46 381.89 135.03C382.13 135.61 383.05 135.03 383.31 136.03C383.54 137.02 384.46 138.42 384.55 138.67C384.63 138.93 385.29 139.17 385.29 139.17L385.54 139.84L385.04 140.25L382.99 144.87L378.44 148.09L375.72 149.82L374.98 151.89L373.83 153.21L373.5 155.77C373.5 155.77 373.83 158.99 373.66 159.16C373.5 159.32 367.47 165.02 367.47 165.02L364.17 165.76L362.35 168.9C362.35 168.9 359.87 171.21 359.71 171.63C359.54 172.04 358.3 173.61 358.3 173.61C358.3 173.61 358.38 176.91 358.3 176.42C358.21 175.92 354.75 179.14 354.75 179.14C354.75 179.14 354.09 182.94 353.93 183.11C353.77 183.27 352.12 186.16 351.86 186.08C351.61 186 351.37 188.06 351.37 188.39C351.37 188.72 352.19 189.71 352.19 189.71C352.19 189.71 353.36 191.95 353.43 191.7C353.51 191.44 353.51 192.45 353.51 192.45L352.36 193.6C352.36 193.6 353.6 195.51 353.6 195.75V200.86L352.27 203.67L351.61 207.31L349.62 208.88L349.7 209.87L351.44 211.27L351.7 212.84L351.2 214.58V216.32L352.45 219.21C352.45 219.21 353.69 220.2 353.93 219.95C354.17 219.7 356.65 221.52 356.98 222.09C357.31 222.67 360.36 226.3 360.36 226.47C360.36 226.63 360.86 227.46 360.86 227.46L362.34 232.5C362.34 232.5 369.53 238.44 369.69 238.2C369.86 237.96 377.37 243.56 377.37 243.56C377.37 243.56 383.41 240.59 383.33 240.85C383.24 241.09 388.44 240.6 388.44 240.6L391.58 241.09L393.88 242.16L402.31 238.28L403.96 237.03L410.48 236.79L413.62 238.02C413.62 238.02 415.68 241.09 415.68 241.58C415.68 242.08 416.92 244.3 417.09 243.97C417.25 243.65 424.44 243.32 424.69 243.4C424.93 243.48 428.07 246.55 428.07 246.55L427.91 249.45L427.41 254.56L426.42 257.04L425.44 259.27L425.19 260.84C425.19 260.84 432.61 271.74 432.61 271.82C432.61 271.9 434.51 276.36 434.51 276.36L436.75 282.07L438.07 285.28L436.75 287.1L438.9 292.65L438.15 298.09L434.93 305.12L433.53 310.32L433.94 317.26L437.81 325.27L441.86 334.44L442.27 344.52L445.5 350.54L447.82 355.41L450.05 360.7L451.2 362.27C451.2 362.27 451.37 364.91 451.11 364.91C450.87 364.91 449.63 365 449.97 365.48C450.3 365.97 452.19 369.28 452.19 369.28L452.27 370.77L454.91 372.25L457.24 371.18C457.24 371.18 459.55 370.77 459.8 370.85C460.04 370.93 463.26 369.77 463.26 369.77L468.22 370.51L471.69 368.7L475.49 368.45C475.49 368.45 482.01 362.09 482.01 362.25C482.01 362.42 488.03 354.49 488.03 354.49L491.1 351.84L492.83 346.64L492.59 343.26C492.59 343.26 493.17 341.51 493.74 341.18C494.32 340.85 499.93 337.55 499.93 337.55L501.1 332.09L500.02 326.72C500.02 326.72 499.19 324.66 499.19 324.33C499.19 324 499.77 322.51 499.77 322.51L505.23 317.64C505.23 317.64 506.47 316.07 507.04 315.49C507.62 314.91 512.73 312.69 512.73 312.69L516.21 309.31L516.79 296.83C516.79 296.83 515.55 292.19 515.47 291.79C515.39 291.37 512.99 283.53 512.99 283.19C512.99 282.86 512.16 278.07 512.07 277.65C512 277.25 513.97 271.71 513.97 271.71L516.71 266.33L527.87 253.53L534.15 248.5L543.65 232.96L546.71 225.77L547.36 218.51L545.38 218.18C545.38 218.18 544.38 219.34 544.14 219.5C543.89 219.67 538.19 220 538.19 220L531.25 222.06L527.86 223.3L524.56 219.84L525.05 217.36L520.6 212.07L514.32 205.8C514.32 205.8 511.17 203.4 511.34 203.16C511.51 202.9 509.6 197.12 509.6 197.29C509.6 197.46 506.46 194.4 506.46 194.4L506.38 188.86L502.99 183.33L499.28 176.55C499.28 176.55 496.13 168.78 495.8 168.37C495.48 167.96 494.24 165.9 494.64 165.98C495.05 166.07 498.03 165.65 498.03 165.65C498.03 165.65 503.56 172.18 503.56 172.51C503.56 172.84 506.87 178.37 506.87 178.37C506.87 178.37 509.34 181.84 509.34 181.59C509.34 181.36 509.92 184.81 509.83 185.07C509.75 185.32 511.32 189.12 511.32 189.12L516.03 193.34L517.02 196.39L521.31 201.1L522.14 204.08L519.24 201.43C519.24 201.43 518.33 202.92 518.66 203.18C518.99 203.42 521.88 206.48 521.88 206.48L523.3 210.69L524.37 214.66L525.93 215.98L530.56 215.07L531.38 213.25H535.93L537.91 211.77L540.38 211.44C540.38 211.44 542.28 209.54 542.45 209.46C542.62 209.38 549.97 206.16 549.97 206.16C549.97 206.16 550.13 203.75 550.46 203.75C550.79 203.75 558.15 201.44 558.15 201.44L558.89 198.63L561.53 198.46L562.27 196.56L564.83 194.99L565.15 190.86L567.06 191.43L567.64 190.02L566.98 189.12L569.87 184.91L569.95 183.41L567.14 180.85L565.82 179.45C565.82 179.45 561.36 178.95 561.19 178.62C561.03 178.29 559.29 174.32 559.29 174.32C559.29 173.09 559.37 170.85 559.12 171.02C558.88 171.18 557.48 172.75 557.48 172.75L552.37 177.46L547.9 178.62C547.9 178.62 546.42 178.21 546.33 177.96C546.25 177.71 546.08 173.91 546.08 173.91C546.08 173.91 544.17 171.68 544.1 171.35C544.02 171.02 542.61 174.25 542.61 174.25C542.61 174.25 540.46 171.35 540.7 171.26C540.95 171.18 539.71 168.37 539.71 168.37L535.42 163.42L535.17 160.85C535.17 160.85 537.24 158.61 537.56 158.53C537.89 158.45 540.86 158.04 541.2 159.12C541.53 160.18 544.01 163.83 544.01 164.33C544.01 164.83 547.8 168.13 548.22 168.04C548.63 167.96 550.11 168.78 550.61 169.11C551.1 169.44 552.09 170.02 552.51 170.44C552.92 170.84 554 170.6 554 170.6L556.73 170.18C556.73 170.18 558.96 168.03 559.05 168.45C559.12 168.87 561.69 169.03 561.36 169.61C561.03 170.19 561.45 171.85 561.69 172.34C561.95 172.84 573.09 174.57 573.09 174.57L578.22 175.23C578.22 175.23 583.66 174.73 583.99 174.73C584.32 174.73 587.8 175.07 588.13 174.97C588.45 174.9 593.41 180.34 593.41 180.34L598.04 182.66L599.11 182.57L596.48 183.73C596.48 183.73 597.38 185.8 597.38 186.04C597.38 186.29 602.01 189.59 602.01 189.59C602.01 189.59 603.66 188.51 603.91 188.51C604.16 188.51 605.32 188.1 605.4 187.52C605.48 186.94 605.15 185.29 605.56 185.13C605.98 184.96 606.55 184.46 606.64 185.21C606.71 185.95 607.72 193.05 607.55 193.13C607.37 193.23 608.95 198.51 608.95 198.75C608.95 199 611.02 205.45 611.09 205.69C611.18 205.93 614.56 213.2 614.8 213.45C615.04 213.7 618.35 222.28 618.35 222.28C618.35 222.28 620.25 225.83 620.17 226.42C620.09 227 620.83 229.8 621.33 230.14C621.82 230.47 624.05 231.3 624.05 231.3C624.05 231.3 625.29 230.22 625.38 229.9C625.45 229.57 626.37 228.09 626.69 227.59C627.02 227.09 628.53 226.93 628.6 227.26C628.68 227.59 630.42 228.42 630.42 228.42L630.24 232.46C630.24 232.46 630.58 235.1 630.82 236.1C631.08 237.09 633.14 237.91 633.14 237.91L635.62 235.68L636.69 231.87L634.22 228.16C634.22 228.16 632.32 226.1 632.07 225.84C631.82 225.6 630.24 225.35 630.24 225.35C630.24 225.35 630.42 226.18 630.58 226.5C630.75 226.83 630.24 226.92 630.24 226.92L628.34 226.18L628.67 224.01C628.67 224.01 630.09 223.77 630.33 223.77C630.57 223.77 630.23 220.47 630.23 220.47C630.23 220.47 630.74 214.61 630.91 214.45C631.08 214.28 630.66 208.5 630 208.26C629.35 208.01 630 206.11 630.33 206.03C630.66 205.94 633.88 204.79 633.88 204.79L635.69 201.24C635.69 201.24 638.92 199 639.17 198.84C639.41 198.67 643.13 194.72 643.13 194.21C643.13 193.72 643.55 192.48 644.54 192.31C645.53 192.15 647.36 190.83 647.36 190.83V188.1C647.36 188.1 647.69 186.78 648.43 186.45C649.17 186.12 651.07 185.87 651.07 185.87C651.07 185.87 651.49 186.95 651.24 187.11C650.99 187.28 655.45 185.87 655.45 185.87C655.45 185.87 657.43 185.87 657.76 185.79C658.1 185.7 659.09 184.22 659.09 184.22C659.09 184.22 658.67 182.89 659.24 183.22C659.83 183.56 661.24 185.04 661.07 185.29C660.89 185.53 661.89 187.18 661.65 187.84C661.39 188.5 665.45 192.97 665.45 192.97C665.45 192.97 667.42 192.06 667.26 192.72C667.09 193.38 666.69 195.45 666.69 195.45C666.69 195.45 667.93 196.27 668.42 196.36C668.92 196.44 670.32 199.17 670.32 199.17C670.32 199.17 669.99 201.64 669.99 201.97C669.99 202.3 670.17 204.7 670.07 205.12C669.99 205.53 673.46 206.29 673.46 206.29C673.46 206.29 676.24 204.09 676.41 203.84ZM431.47 81.0901L434.2 78.78L434.78 76.55C434.78 76.55 437.33 76.97 437.41 77.3C437.49 77.63 438.08 76.5499 438.73 77.1399C439.4 77.7199 440.23 77.6299 440.31 78.1299C440.38 78.6299 440.88 79.2101 440.97 78.8701C441.05 78.5401 441.05 77.47 441.05 77.47C441.05 77.47 440.31 77.06 439.89 76.8C439.47 76.56 439.56 75.8101 439.98 75.5701C440.39 75.3201 441.54 74.6499 441.88 74.8999C442.21 75.1399 443.7 74.5701 443.7 74.5701C443.7 74.5701 443.95 74.0701 444.11 73.8301C444.28 73.5701 445.11 71.3501 445.11 71.3501C445.11 71.3501 444.52 71.1001 444.36 70.3601C444.19 69.6201 445.27 67.4699 445.53 67.3899C445.77 67.3099 449 65.3999 449 65.3999C449 65.3999 450.24 64.0699 449.74 63.6699C449.24 63.2499 445.53 61.44 445.53 61.02C445.53 60.61 445.12 58.4599 445.36 57.6399C445.61 56.8199 447.1 55.2399 447.35 54.9099C447.6 54.5899 449.42 52.3599 449.75 52.4299C450.08 52.5199 451.32 52.2601 451.64 52.1101C451.98 51.9401 454.86 50.62 454.37 50.54C453.88 50.46 454.54 48.97 454.28 49.05C454.03 49.13 454.53 47.15 455.11 46.99C455.68 46.83 456.67 46.0801 456.93 46.0801C457.16 46.0801 459.16 46.16 459.65 46.24C460.14 46.32 461.88 45.5 462.12 46.24C462.37 46.98 463.02 47.1499 462.45 47.3999C461.87 47.6499 460.55 48.81 459.72 49.54C458.9 50.28 456.41 51.94 456.08 52.02C455.76 52.11 455.58 52.2699 454.92 52.6899C454.26 53.0899 454.26 52.1099 454.1 53.6799C453.93 55.2499 453.69 56.9801 454.01 57.5701C454.34 58.1501 454.58 59.05 454.26 59.47C453.93 59.88 454.17 60.1301 454.26 60.8701C454.35 61.6101 455.35 61.94 455.42 62.27C455.5 62.6 456.82 63.26 456.82 63.26C457.48 63.19 458.24 63.0999 458.39 63.4299C458.56 63.7599 458.89 63.6001 458.89 63.6001L460.28 63.26C460.28 63.26 461.69 62.43 462.19 62.52C462.68 62.6 463.34 62.36 463.92 62.52C464.5 62.69 466.97 61.8599 467.31 61.9399C467.64 62.0299 469.94 61.0301 470.12 61.3701C470.29 61.7001 471.53 61.6201 471.53 61.6201L472.52 62.3601C472.52 62.8501 471.53 64.0099 471.28 64.1799C471.03 64.3399 470.21 65.0101 469.71 64.8401C469.22 64.6801 468.88 64.9199 468.22 64.6799C467.56 64.4299 466.32 64.0901 465.98 64.0901C465.65 64.0901 461.78 65.01 461.78 65.01L459.8 65.5801L459.46 66.74L459.71 66.99L461.69 68.23C461.69 68.65 462.52 68.3999 462.35 69.3899C462.19 70.3799 462.1 70.79 461.86 71.29C461.61 71.79 460.62 72.7001 460.37 72.1201C460.12 71.5401 458.89 70.47 458.56 70.22C458.24 69.97 457.25 70.1399 456.65 70.1399C456.08 70.1399 454.92 70.9699 454.92 71.8799C454.92 72.7899 454.35 73.9501 454.59 74.8501C454.84 75.7701 455.92 76.93 455.43 77.5C454.93 78.08 453.78 78.49 453.28 78.74C452.79 78.99 451.62 79.81 451.21 79.98C450.8 80.14 449.56 80.6401 449.31 80.0601C449.07 79.4801 448.57 78.5701 448.57 78.5701C448.57 78.5701 448.16 77.75 447.99 78C447.84 78.24 446.92 78.3301 446.92 78.3301L444.78 79.1499C444.78 79.1499 443.61 79.9699 443.37 80.1399C443.11 80.2999 441.88 80.3 441.38 80.55C440.89 80.8 439.4 82.04 438.99 81.46C438.57 80.89 438.33 81.87 437.82 80.96C437.34 80.05 437.49 79.06 436.91 79.23C436.34 79.4 435.01 79.72 434.85 80.05C434.68 80.38 434.51 80.38 434.19 80.71C433.86 81.04 431.46 81.29 431.46 81.29L431.47 81.0901ZM499.91 142.25C499.29 143.86 499.29 145.97 498.42 147.58C497.55 149.18 497.18 150.05 496.56 151.05C495.94 152.03 495.94 153.4 494.95 154.02C493.96 154.64 492.48 155.51 491.61 154.89C490.75 154.27 487.28 154.39 486.89 154.52C486.52 154.64 482.32 154.4 481.82 155.26C481.33 156.13 478.12 155.51 477.6 155.26C477.11 155.02 471.04 152.53 470.54 152.41C470.05 152.29 466.94 150.93 466.44 150.56C465.95 150.18 462.85 149.81 462.73 149.44C462.6 149.07 462.98 148.57 462.47 148.7C461.98 148.81 458.38 149.94 457.89 150.3C457.39 150.69 456.29 151.68 456.29 151.68C456.29 151.68 454.79 153.16 454.92 154.28C455.05 155.4 456.41 156.26 455.92 156.88C455.43 157.5 453.69 158.24 453.69 158.24C453.69 158.24 451.82 156.51 451.21 156.26C450.59 156.01 444.77 155.15 444.77 155.15L442.41 152.43C442.41 152.43 438.69 149.95 438.32 149.83C437.94 149.71 433.86 149.83 433.23 149.34C432.61 148.84 430.63 146.24 429.64 146.37C428.65 146.49 429.02 144.88 429.39 144.64C429.76 144.39 430.87 142.29 430.75 141.92C430.62 141.54 431.37 139.45 430.13 138.83C428.89 138.2 429.75 136.09 429.75 136.09C429.75 136.09 430.99 135.84 430.5 135.84C430.01 135.84 428.15 135.96 427.65 135.35C427.16 134.73 427.02 134.49 426.54 134.73C426.03 134.98 422.94 135.47 422.57 135.35C422.19 135.23 419.23 135.6 418.73 135.6C418.24 135.6 418.85 135.73 418.24 135.6C417.61 135.48 415.13 136.6 415.01 137.08C414.9 137.58 412.42 136.97 412.04 137.08C411.66 137.2 408.07 137.2 408.07 137.2L402.12 138.19C402.12 138.19 398.16 140.19 398.03 140.8C397.91 141.42 396.67 142.41 396.3 142.65C395.93 142.9 393.7 142.65 393.57 142.28C393.45 141.91 389.48 142.41 389.48 142.41C389.48 142.41 387.87 141.54 387.38 141.91C386.89 142.28 386.89 140.29 386.89 140.29L387.51 138.82L389.74 137.33L395.08 136.33L397.68 134.6L399.28 133.98L400.27 131.38C400.27 131.38 402.13 131.01 402.01 130.63C401.89 130.26 401.4 128.52 401.4 128.52L404.99 122.95L410.07 120.47L410.94 118.73C410.94 118.73 410.45 116.5 410.82 116.13C411.19 115.76 414.54 115.01 414.54 115.01L418.76 116.37C418.76 116.37 420.99 114.89 421.48 114.64C421.97 114.39 424.33 113.03 424.33 113.03C424.33 113.03 424.57 111.92 425.07 112.04C425.57 112.16 427.67 111.67 427.93 112.66C428.18 113.65 430.03 116.75 430.03 116.75L432.88 119.73L435.61 121.84L438.96 123.07C438.96 123.07 440.94 124.81 441.31 124.93C441.68 125.05 443.54 127.16 443.54 127.16L444.53 128.89C444.53 128.89 443.91 130.26 443.42 130.88C442.93 131.49 441.44 133.11 441.07 132.98C440.7 132.87 437.84 132.37 437.84 132.37L434.75 132.74C434.75 132.74 434.26 133.48 435.13 134.1C436 134.72 436.99 134.6 437.85 135.09C438.73 135.58 440.96 136.58 440.96 136.58C440.96 136.58 442.45 136.82 442.45 137.19C442.45 137.56 442.94 136.2 442.81 135.33C442.69 134.47 442.56 133.35 443.43 133.1C444.3 132.85 445.66 133.1 445.66 132.72C445.66 132.35 446.04 131.85 446.04 131.85L447.15 130.5L447.03 129.64L448.15 128.76C448.15 128.76 447.53 128.03 447.03 127.4C446.54 126.78 446.04 126.41 446.4 125.79C446.78 125.17 448.01 124.3 448.65 124.8C449.27 125.29 451.12 125.54 451 126.16C450.88 126.77 451 127.64 451.25 127.15C451.49 126.65 451.37 124.67 451.37 124.67C451.37 124.67 450.38 123.31 449.51 123.19C448.65 123.06 446.4 121.95 445.79 121.7C445.17 121.45 444.06 120.84 444.06 120.84C444.06 120.84 444.55 119.48 443.82 119.6C443.07 119.72 440.84 119.34 440.84 118.98C440.84 118.6 438.61 116.86 438.49 116.5C438.37 116.12 436.38 113.4 436.38 113.4C436.38 113.4 435.26 112.29 435.14 111.92C435.01 111.55 434.89 110.93 434.64 109.94C434.38 108.95 437.11 106.47 436.99 106.84C436.86 107.2 437.61 107.71 438.11 108.82C438.6 109.94 440.58 111.8 440.83 112.54C441.07 113.28 443.81 115.39 444.42 115.63C445.05 115.87 445.41 116.63 446.65 117.12C447.89 117.62 447.77 117.86 449.38 118.6C450.98 119.34 451.24 119.6 451.47 119.96C451.73 120.34 452.71 120.22 453.09 120.83C453.46 121.45 453.95 121.57 453.95 122.19C453.95 122.81 454.45 122.81 454.19 124.05C453.95 125.29 453.58 125.66 453.7 125.91C453.82 126.16 456.06 130.75 456.92 130.75C457.78 130.75 460.38 131.74 460.01 133.22C459.64 134.7 461.62 136.69 461.62 136.69C461.62 136.69 463.28 136.8 464.42 136.99C464.47 136.13 464.29 134.74 465.22 134.21C466.32 133.59 467.94 132.97 467.69 132.35C467.44 131.73 467.19 130.61 466.2 129.87C465.22 129.13 464.22 128.74 463.97 127.52C463.73 126.28 463.35 124.66 464.46 125.16C465.57 125.65 466.57 128.02 467.07 126.4C467.56 124.79 468.79 123.68 469.66 124.05C470.54 124.42 472.15 125.04 472.02 125.53C471.89 126.03 473.13 130 473.13 130C473.13 130 473.62 130.38 473.87 132.23C474.12 134.08 475.73 134.58 475.48 135.2C475.23 135.81 474.48 136.19 476.47 136.44C478.44 136.69 480.31 137.06 480.31 137.55C480.31 138.05 481.92 138.3 482.17 138.67C482.41 139.04 483.9 139.78 484.15 139.04C484.4 138.3 484.89 136.8 485.27 137.05C485.64 137.31 488.74 137.31 488.99 138.3C489.25 139.28 491.35 139.28 491.35 139.54C491.35 139.78 493.21 138.92 493.21 138.92C493.21 138.92 495.81 136.93 496.55 137.3C497.29 137.67 499.39 135.93 499.14 137.54C498.92 139.16 500.53 140.65 499.91 142.25ZM512.3 120.45C511.94 120.83 509.57 123.18 509.57 123.18L504.86 122.56H501.64L498.92 121.57C498.92 121.57 497.06 120.95 496.69 120.58C496.31 120.21 493.97 119.34 493.97 119.34L489.01 120.46L485.17 121.58L483.82 122.81L479.23 121.7L476.51 120.34L475.01 118.72H476.37L475.88 116.74L476.12 115.38L477.35 114.63L478.22 111.04L479.71 110.42L480.08 108.57C480.08 108.57 481.32 107.45 481.7 107.08C482.07 106.71 483.31 104.97 483.31 104.97L486.28 106.21C486.28 106.21 489.38 106.59 488.88 106.71C488.38 106.83 486.89 108.57 486.89 108.57C486.89 108.57 488.01 109.18 488.52 109.56C489 109.93 490.13 110.55 489.87 111.29C489.62 112.03 491.73 111.91 491.73 111.91L492.47 110.67L495.93 109.81L497.17 109.18L495.19 108.57C495.19 108.57 493.46 107.94 493.71 107.57C493.96 107.19 495.57 104.72 495.57 104.72C495.57 104.72 499.66 103.49 500.03 103.49C500.39 103.49 502.89 102.99 502.89 102.99C502.89 102.99 500.91 104.97 500.65 105.35C500.39 105.73 500.78 106.95 500.16 107.46C499.55 107.95 498.67 108.46 498.3 108.58C497.92 108.69 498.17 109.94 498.54 110.06C498.92 110.19 500.16 110.68 500.16 110.68L505.61 113.53L508.95 116.87L511.56 118.99C511.56 118.96 512.67 120.08 512.3 120.45ZM543.78 136.8L540.67 137.17C540.67 137.17 537.95 136.05 537.83 135.56C537.7 135.07 537.08 133.95 536.71 134.2C536.34 134.45 535.1 134.57 534.73 134.45C534.36 134.32 532.99 133.21 532.99 132.71C532.99 132.22 532.61 131.1 533.24 130.6C533.87 130.11 535.1 129.24 534.85 128.86C534.61 128.49 534.47 126.89 534.47 126.63C534.47 126.38 534.47 126.14 535.22 126.01C535.96 125.88 535.96 125.88 535.96 125.88C535.96 125.88 536.21 125.14 535.83 124.77C535.46 124.4 533.22 122.79 532.98 122.42C532.75 122.05 530.01 119.45 529.64 119.07C529.27 118.71 527.66 117.59 527.66 117.59L526.79 115.73L527.53 113.38L525.31 112.88L524.82 111.28V110.9L527.17 108.18C527.17 108.18 528.79 107.32 529.15 107.55C529.52 107.81 530.38 106.81 530.53 106.44C530.64 106.06 532.99 104.45 533.5 104.2C533.99 103.96 534.86 102.84 535.36 103.46C535.85 104.08 538.95 105.07 538.95 105.07C538.95 105.07 540.07 105.31 539.94 105.8C539.82 106.3 538.83 109.53 538.83 109.53C538.83 109.53 536.61 108.91 536.36 109.03C536.12 109.15 534.38 109.77 534.75 110.76C535.12 111.75 533.39 111.13 533.51 111.63C533.63 112.12 533.88 112.87 534.25 113.11C534.62 113.36 536.72 114.47 536.97 115.21C537.21 115.96 540.68 118.19 540.68 118.19C540.68 118.19 541.06 118.43 540.93 118.94C540.81 119.43 540.56 122.03 540.93 122.03C541.3 122.03 542.16 121.9 542.16 121.9C542.16 121.9 543.29 119.55 543.66 119.8C544.03 120.04 545.52 121.16 545.89 122.03C546.25 122.9 547 123.76 546.63 124.01C546.25 124.25 544.52 124.13 544.03 124.13C543.54 124.13 542.67 123.51 542.42 123.76C542.16 124.01 541.68 124.63 542.05 125.37C542.42 126.12 543.17 127.23 543.55 127.49C543.91 127.73 544.28 127.6 545.41 128.61C546.52 129.6 546.89 130.09 546.52 131.21C546.15 132.32 546.39 133.32 546.52 133.68C546.64 134.05 546.89 134.92 547.14 135.29C547.38 135.66 547.38 136.15 547.38 136.15L543.78 136.8ZM499.07 37.73C499.03 37.71 498.98 37.71 498.96 37.71C498.92 37.73 498.97 37.73 499.07 37.73ZM800.14 63.4099C800.15 63.3899 800.13 63.3601 800.11 63.3301C800.12 63.4201 800.12 63.4599 800.14 63.4099ZM576.69 21.6001C576.69 21.6001 576.74 21.59 576.84 21.54C576.76 21.46 576.7 21.4101 576.69 21.3701C576.61 21.0301 576.69 21.6001 576.69 21.6001ZM541.58 298.33C541.58 298.33 538.93 301.31 538.77 301.81C538.6 302.3 536.46 304.94 536.12 305.76C535.79 306.59 533.15 308.4 533.15 308.4L528.36 310.38C528.36 310.38 526.71 310.55 527.2 311.22C527.2 311.22 526.87 312.53 525.72 314.02C524.56 315.5 525.72 317.48 525.72 317.48L526.37 320.78V323.92C526.37 323.92 525.38 327.39 524.88 327.55C524.39 327.72 523.56 328.71 523.07 330.36C522.57 332.01 522.74 333.17 522.74 333.17C522.74 333.17 523.07 335.65 522.57 336.15C522.07 336.64 523.4 339.12 523.9 339.95C524.39 340.77 525.72 341.26 525.72 341.26C525.72 341.26 526.87 342.26 527.37 342.58C527.86 342.91 530.34 341.93 530.34 341.93C530.34 341.93 532.16 341.1 532.65 340.77C533.15 340.43 533.48 340.28 534.46 338.62C535.46 336.97 534.8 337.46 534.95 336.97C535.13 336.48 536.11 334.32 536.61 331.52C537.1 328.71 537.27 328.88 537.93 326.4C538.59 323.92 539.41 323.25 539.58 321.28C539.75 319.3 539.91 318.46 540.07 317.8C540.24 317.14 541.9 314.67 542.06 313.01C542.22 311.37 542.22 310.53 541.9 309.88C541.57 309.21 543.88 309.7 544.21 308.71C544.55 307.72 544.21 308.71 544.38 308.22C544.55 307.72 544.72 304.58 544.72 302.77C544.72 300.95 542.9 298.13 542.72 297.65C542.57 297.18 541.58 298.33 541.58 298.33ZM706.62 274.38C707.12 273.06 706.62 272.89 706.29 272.23C705.96 271.57 706.94 268.6 708.27 267.44C709.59 266.28 707.61 266.11 707.61 266.11L705.63 266.44L703.81 262.97C703.81 262.97 700.67 260.5 699.68 259.83C698.69 259.17 701.16 257.85 701.16 257.85C701.16 257.85 695.56 252.56 694.89 252.56C694.23 252.56 690.92 249.92 690.43 249.75C689.94 249.59 687.29 245.13 687.29 245.13L676.05 239.52C676.05 239.52 674.57 240.85 674.57 241.5C674.57 242.16 676.55 242.49 676.55 242.49C676.55 242.49 677.21 242.98 677.87 243.32C678.53 243.65 680.51 245.3 680.68 246.46C680.84 247.61 681.18 248.27 682.33 249.26C683.49 250.25 685.47 250.76 685.47 250.76C685.47 250.76 686.31 253.56 686.97 253.9C687.63 254.23 688.13 255.71 688.45 256.54C688.78 257.37 691.93 262.49 691.75 264.3C691.59 266.12 694.08 270.42 694.08 270.42C694.08 270.42 699.7 274.87 699.86 275.54C700.02 276.2 704.14 277.36 704.14 277.36C704.14 277.36 706.13 275.7 706.62 274.38ZM744.95 240.51C744.95 239.85 743.13 238.37 742.63 237.7C742.14 237.03 739.17 234.39 738.51 233.9C737.85 233.41 738.51 233.9 737.52 235.72C736.53 237.53 735.37 239.68 734.87 239.84C734.37 240.01 730.75 242.32 729.75 243.47C728.76 244.63 726.78 247.6 726.13 247.12C725.47 246.62 722.65 249.25 722.65 249.25L721.17 252.89L716.54 251.9L716.87 253.39C716.87 253.39 715.39 255.69 715.72 256.2C716.05 256.7 715.72 258.52 716.21 259.5C716.7 260.5 717.2 261.16 718.02 261.82C718.85 262.48 719.01 264.63 718.51 266.28C718.01 267.93 719.18 268.26 719.83 268.93C720.49 269.59 721.97 269.76 722.64 269.25C723.3 268.75 724.62 268.6 725.46 269.09C726.27 269.58 728.43 269.58 729.08 270.41C729.74 271.24 732.39 270.74 732.88 271.24C733.38 271.73 736.03 270.74 736.68 270.07C737.33 269.42 736.68 268.1 736.68 265.95C736.68 263.8 737.01 263.97 738.18 263.14C739.34 262.31 740.16 261.65 740.32 260.5C740.49 259.34 740.82 257.36 740.82 256.36C740.82 255.36 743.46 255.54 743.95 255.2C744.46 254.87 743.62 254.21 743.62 253.72C743.62 253.22 741.47 250.91 740.98 250.08C740.49 249.25 741.8 245.12 742.62 244.46C743.47 243.81 744.95 241.17 744.95 240.51ZM721.83 284.95C722.32 285.12 723.48 285.12 725.95 285.78C728.44 286.44 730.75 286.61 731.08 287.27C731.41 287.93 733.55 287.27 734.55 287.11C735.54 286.94 737.86 284.79 739.34 286.45C740.83 288.1 743.8 286.94 744.29 287.28C744.78 287.6 746.28 286.45 748.09 286.62C749.91 286.78 750.08 287.28 750.57 287.28C751.06 287.28 752.72 287.78 753.54 287.6C754.37 287.44 755.35 286.45 756.84 286.62C758.34 286.78 762.29 285.45 762.29 285.45C762.29 285.45 762.29 285.62 761.31 286.28C760.31 286.94 757.01 289.41 757.01 289.41C757.01 289.41 756.51 289.08 756.34 290.08C756.18 291.07 755.19 293.06 756.18 292.22C757.18 291.41 760.64 288.43 761.47 287.77C762.29 287.11 762.62 286.77 763.45 286.28C764.28 285.79 766.09 285.29 766.09 285.29L767.25 284.46C767.25 284.46 766.25 283.8 765.75 283.97C765.26 284.14 764.43 283.31 763.28 283.81C762.12 284.3 758.99 284.8 758.99 284.8C758.99 284.8 757.01 285.13 755.85 284.64C754.69 284.15 753.37 283.32 752.87 283.97C752.38 284.64 749.57 285.46 749.06 285.46C748.57 285.46 746.75 285.29 745.43 284.97C744.11 284.64 743.78 284.64 743.12 284.64C742.46 284.64 742.46 284.15 740.64 283.97C738.82 283.81 738.31 283.31 737.84 283.48C737.33 283.65 736.52 283.81 735.86 284.15C735.19 284.47 733.2 284.47 732.72 283.98C732.22 283.49 727.26 282.5 727.26 282.5C727.26 282.5 726.6 281.67 728.1 281.18C729.58 280.69 729.26 280.69 729.09 280.03C728.93 279.36 726.44 279.36 725.79 279.54C725.13 279.69 723.47 280.03 722.81 279.36C722.15 278.71 720.17 277.04 719.51 278.04C718.84 279.03 719.18 280.36 718.51 280.2C717.85 280.04 713.38 280.53 713.38 280.04C713.38 279.55 712.22 278.22 711.73 278.05C711.24 277.89 711.4 277.4 710.58 277.05C709.75 276.74 708.1 277.22 708.1 277.22L706.45 277.39L704.46 279.7C704.46 279.7 709.09 280.2 709.58 280.86C710.07 281.52 712.55 283.5 712.55 283.5C712.55 283.5 715.85 284.33 716.68 284.49C717.53 284.62 721.33 284.78 721.83 284.95ZM716.38 192.27C715.87 191.94 714.56 191.94 714.56 191.94L712.91 192.6L712.08 192.27L710.26 194.75C710.26 194.75 710.76 197.55 711.25 197.55C711.74 197.55 713.56 197.55 713.56 197.55L715.38 196.23L716.38 193.76C716.38 193.76 716.86 192.6 716.38 192.27ZM743.14 185.66L744.13 183.67C744.13 183.67 744.63 181.69 744.79 181.19C744.96 180.69 745.61 179.2 745.13 178.38C744.63 177.55 744.96 176.4 744.63 175.74C744.3 175.08 744.13 174.09 744.13 174.09L742.48 174.75C741.82 175.41 740.83 178.38 740.83 178.38C740.83 178.38 740.17 181.36 740.66 182.01C741.15 182.68 742.48 184.49 742.48 184.49L743.14 185.66ZM763.95 235.38C765.44 235.88 765.93 235.56 765.76 234.88C765.6 234.22 765.1 230.76 764.77 229.44C764.44 228.12 766.75 227.12 764.28 225.15C761.81 223.16 761.97 223.34 761.81 223.16C761.64 222.99 761.64 221.35 761.64 221.35C761.64 221.35 762.13 219.7 761.81 219.21C761.48 218.72 761.15 217.72 760.82 217.23C760.49 216.73 760.49 216.57 759.49 216.57C758.5 216.57 758.5 215.41 757.84 215.57C757.18 215.74 755.53 217.05 756.68 215.08C757.84 213.09 757.18 212.76 757.18 212.43C757.18 212.1 756.34 211.61 755.52 211.44C754.7 211.27 754.03 210.28 752.88 210.61C751.72 210.95 751.23 210.12 750.57 210.12C749.91 210.12 749.58 209.29 749.42 208.31C749.25 207.32 749.58 205.33 749.58 204.84C749.58 204.34 750.57 202.85 750.57 202.85C750.57 202.85 750.9 202.18 750.57 201.03C750.24 199.88 749.58 197.89 749.58 197.07C749.58 196.24 747.76 195.42 747.76 195.42L745.61 196.25L744.79 203.52C744.79 203.52 743.31 204.01 743.48 204.67C743.64 205.34 743.64 208.48 744.47 209.13C745.29 209.78 746.62 210.61 746.62 210.61C746.94 211.44 746.13 213.08 746.13 213.08C746.13 213.08 748.1 215.4 748.28 216.07C748.44 216.73 749.44 216.39 749.44 216.39C749.44 216.39 748.95 211.93 749.93 212.75C750.92 213.58 753.56 213.42 753.73 214.41C753.9 215.4 755.72 216.39 756.04 217.39C756.37 218.38 758.52 218.71 758.37 219.53C758.2 220.36 756.87 220.36 756.04 220.52C755.22 220.69 752.58 218.71 752.58 218.71C752.58 218.71 751.92 218.54 751.76 219.53C751.6 220.52 752.09 223 752.75 223.82C753.41 224.65 754.07 223.82 754.4 224.31C754.73 224.81 754.4 225.97 754.9 226.63C755.39 227.29 756.71 227.45 757.21 227.12C757.7 226.8 759.36 225.96 759.36 225.96C759.36 225.96 759.19 223.98 758.53 223.64C757.87 223.31 756.88 222.32 757.38 221.83C757.87 221.33 758.86 220.34 759.36 220.5C759.85 220.67 761.01 222.81 760.84 223.31C760.68 223.8 760.84 223.98 761.51 225.79C762.16 227.62 762.5 227.29 761.67 227.62C760.84 227.94 760.02 228.94 759.52 229.27C759.41 229.35 759.39 229.39 759.41 229.43C759.29 229.39 758.97 229.33 758.2 229.27C756.04 229.1 756.54 228.11 756.04 229.1C755.55 230.09 755.05 230.91 755.05 230.91L753.9 231.4C753.9 231.4 753.07 234.04 753.23 234.86L753.39 235.7C753.39 235.7 755.04 232.55 755.54 232.55C756.03 232.55 756.03 233.38 756.7 232.88C757.37 232.39 758.03 232.72 758.03 232.72C758.03 232.72 759.02 232.22 758.85 233.54C758.7 234.86 758.7 235.03 759.18 236.36C759.69 237.67 761.01 238.34 761.5 238.83C761.99 239.32 762.65 239.66 762.98 239.99C763.31 240.32 763.47 238.5 763.31 237.18C763.12 235.88 762.47 234.88 763.95 235.38ZM752.39 255.37C754.22 256.36 755.36 256.86 756.85 257.36C758.35 257.85 759.82 256.37 760.16 256.7C760.49 257.03 761.98 255.54 761.98 255.54C761.98 255.54 763.13 253.89 762.97 253.4C762.8 252.89 762.64 251.41 762.3 251.91C761.98 252.4 758.83 254.22 758.18 254.38C757.52 254.55 755.87 253.89 754.38 253.89C752.89 253.89 749.26 252.73 748.75 253.23C748.27 253.73 746.77 255.71 746.94 256.54C747.11 257.37 746.94 257.86 746.94 258.36C746.94 258.85 746.45 261.16 746.45 260.51L744.14 266.61C744.14 266.61 745.95 271.24 745.79 272.07C745.62 272.89 745.29 277.52 745.79 277.02C746.29 276.52 748.76 276.19 748.76 276.19C748.76 276.19 749.6 273.22 749.43 271.9C749.26 270.58 747.77 266.45 749.09 266.78C750.42 267.11 751.74 268.76 751.74 268.76C751.74 268.76 750.74 269.76 751.08 270.42C751.41 271.08 752.57 271.9 752.41 273.39C752.24 274.88 752.9 275.54 752.9 275.04C752.9 274.55 754.55 275.37 754.72 275.7C754.86 276 756.42 274.61 756.67 274.63C756.69 274.14 756.94 272.11 756.53 271.58C756.03 270.92 756.03 269.93 754.89 268.61C753.72 267.27 755.22 266.95 754.06 265.46C752.9 263.98 752.41 264.48 752.9 263.98C753.39 263.48 754.39 263.15 755.21 262.66C756.03 262.16 756.69 260.85 756.69 260.85C756.86 260.36 757.19 260.52 755.87 260.19C754.55 259.86 753.39 259.52 752.56 260.52C751.74 261.51 750.91 261.67 750.91 261.67C750.91 261.67 750.91 261.67 750.25 261.84C749.59 262.01 749.75 260.85 749.26 260.68C748.76 260.52 748.76 260.35 748.43 259.2C748.1 258.04 748.43 256.22 748.93 255.88C749.42 255.54 750.57 254.38 752.39 255.37ZM756.68 274.7C756.7 274.64 756.68 274.62 756.65 274.62C756.64 274.74 756.65 274.8 756.68 274.7ZM821.44 274.7C821.28 273.71 821.11 272.55 820.63 271.73C820.12 270.9 809.38 265.28 808.06 264.78C806.74 264.29 799.82 262.14 799.82 262.14C799.82 262.14 796.5 263.46 796.5 263.96C796.5 264.45 794.85 266.27 794.18 266.94C793.53 267.6 793.69 268.26 792.7 268.1C791.7 267.93 791.55 268.1 791.04 267.6C790.56 267.11 790.06 265.44 789.4 264.96C788.73 264.47 787.42 263.8 787.74 262.48C788.08 261.16 788.57 259.34 787.58 259.34C786.59 259.34 785.11 260.01 784.78 259.5C784.45 259.01 782.47 259.18 782.47 259.18L778.35 260.34L777.84 260.51C777.84 260.51 779.66 263.98 780.83 263.64C781.99 263.31 784.13 265.95 784.13 265.95C784.13 265.95 783.47 267.44 783.8 267.93C784.13 268.42 785.45 270.91 785.45 270.91L788.09 270.74L790.73 271.9L797.84 274.21L799.83 276.51L800.99 281.48C800.99 281.48 798.01 283.46 798.18 284.28C798.34 285.11 801.98 284.12 801.98 284.12L804.95 285.6L808.57 287.41L812.71 287.57L815.18 284.77C815.18 284.77 818.81 281.63 818.81 282.3C818.81 282.96 822.12 284.28 822.62 285.77C823.12 287.26 826.09 289.91 826.09 289.91C826.09 289.91 830.21 291.23 830.71 291.4C831.2 291.55 832.36 291.73 833.53 292.06C834.69 292.39 832.37 289.08 832.37 289.08C832.37 289.08 828.73 286.93 828.57 286.11C828.41 285.29 825.43 282.81 825.6 281.99C825.76 281.16 824.27 280.18 824.94 280.18C825.6 280.18 828.24 279.85 827.91 279.35C827.58 278.86 825.76 275.72 824.94 275.72C824.09 275.7 821.62 275.7 821.44 274.7ZM827.06 330.54C827.06 330.54 825.25 329.72 825.08 330.05C824.92 330.38 824.25 326.91 824.25 326.91L824.58 325.1C824.58 325.1 819.62 318.81 819.47 319.32C819.29 319.81 817.65 314.2 817.65 314.2L817.16 308.09L816 304.45L813.03 304.78L812.37 298.83L810.71 293.21L809.89 292.88L808.24 296.68C808.24 296.68 807.41 301.97 807.08 303.79C806.75 305.6 806.59 308.25 805.6 309.91C804.61 311.56 802.29 315.52 802.29 315.52C802.29 315.52 799.65 315.52 799.31 315.03C798.98 314.54 796.01 313.05 796.01 313.05L794.19 310.24L791.23 307.93C791.23 307.93 789.23 305.45 789.07 305.61C788.91 305.77 790.57 303.3 791.05 302.97C791.56 302.64 791.72 300.99 791.72 300.99L794.36 298.84C794.36 298.84 794.86 298.01 794.36 297.52C793.86 297.02 793.86 296.19 793.2 296.02C792.54 295.86 788.74 297.68 788.74 297.68L785.6 296.19C785.6 296.19 783.28 295.03 782.8 294.21C782.3 293.39 780.98 292.89 780.65 293.22C780.32 293.55 780.65 295.2 780.65 295.2C780.65 295.2 781.33 296.66 781.57 297.11C781.27 296.85 780.16 297.68 780.16 297.68L777 298L775.01 299.82L773.52 302.63L772.53 304.61C772.53 304.61 773.35 305.93 773.02 305.76C772.69 305.6 768.23 306.92 768.23 306.92C768.23 306.92 767.07 304.44 766.57 303.95C766.08 303.45 764.59 302.63 763.93 302.63C763.27 302.63 761.62 304.12 761.62 304.12L760.97 307.59L758.49 306.93L756.34 310.56L754.21 311.39L753.04 313.86L752.38 311.22L749.9 313.53L749.07 317.32C749.07 317.32 745.93 320.3 745.6 320.96C745.27 321.62 738.32 324.11 738.32 324.11L733.87 325.59C733.87 325.59 731.56 326.08 731.06 326.08C730.57 326.08 726.26 329.22 726.26 329.22L724.79 330.7L724.29 329.38L722.47 331.36V335.49L720.65 337.96L721.64 341.76L720.15 342.26L718.83 343.26L720.32 346.23L720.81 351.67C720.81 351.67 721.63 353.33 721.47 354.32C721.31 355.3 720.64 356.3 720.64 356.96C720.64 357.62 721.14 360.1 721.14 360.76C721.14 361.42 719.65 365.73 719.65 365.73L717.84 368.7L716.36 368.87C716.36 368.87 716.68 372.01 717.18 372.01C717.67 372.01 719.17 372.66 720.48 373.17C721.81 373.65 723.95 372.84 724.45 372.67C724.94 372.5 728.58 370.52 728.58 370.52C728.58 370.52 730.73 369.04 731.38 369.2C732.04 369.37 735.02 368.87 735.51 369.2C736.01 369.53 739.81 369.37 739.81 369.37L742.12 366.9L748.4 364.09L751.54 363.76L759.13 361.62L765.58 362.28C765.58 362.28 771.04 366.25 771.04 365.92C771.04 365.59 772.2 368.07 772.2 368.07L771.87 371.2C771.87 371.2 773.68 372.69 773.84 372.19C774.01 371.69 775.83 369.71 776.33 369.22C776.81 368.73 778.31 368.07 779.47 367.24C780.62 366.41 780.95 365.92 780.95 365.92C780.95 365.92 779.8 369.22 779.3 369.22C778.81 369.22 777.81 370.21 777.31 370.87C776.82 371.53 776 372.03 776 372.36C776 372.68 776.99 372.68 777.47 372.36C777.97 372.03 778.8 371.03 779.47 370.7C780.12 370.37 780.46 370.54 780.29 371.36C780.13 372.19 780.13 373 779.47 373.34C778.8 373.67 777.97 374.17 776.81 374.83C775.67 375.49 774.84 374.99 774.34 375.49C773.84 375.99 774.67 376.49 775 376.81C775.33 377.14 776.17 378.14 776.81 376.98C777.47 375.82 778.31 374.98 778.8 374.66C779.29 374.34 780.29 373.33 780.29 374.16C780.29 374.99 780.79 375.82 780.95 376.49C781.12 377.14 779.8 378.46 779.96 378.79C780.13 379.12 781.79 382.76 781.79 382.76C781.79 382.76 782.78 384.07 783.93 384.07C785.09 384.07 787.56 384.9 788.06 385.08C788.55 385.24 790.87 385.08 791.21 384.41C791.54 383.75 793.52 382.43 793.36 382.92C793.19 383.42 793.52 384.41 794.02 384.9C794.51 385.39 795.34 386.72 795.34 386.72L801.46 381.92C801.46 381.92 806.08 380.93 806.25 381.43C806.42 381.92 809.39 378.13 809.39 378.13L818.81 366.57L822.46 364.09L825.1 360.29L828.73 353.67L830.71 346.25L832.2 340.63L828.56 335.17L827.06 330.54ZM790.38 392.17C790.38 392.17 788.07 390.68 787.73 390.19V389.69L786.09 394.81L784.61 400.27C784.61 400.27 787.58 400.6 787.91 400.76C788.24 400.92 793.2 397.95 793.37 397.29C793.53 396.63 796.84 391.18 796.84 391.18C796.84 391.18 791.55 392.34 790.38 392.17ZM879.93 382.59L878.28 380.93C878.28 380.93 878.45 378.62 877.95 378.62C877.46 378.62 876.63 378.79 876.63 378.79L877.46 373L874.47 371.19L873.82 380.11L871.67 385.08L867.39 386.73C867.39 386.73 869.2 388.54 869.86 388.54C870.52 388.54 869.36 390.52 869.36 390.52L866.55 393C866.55 393 865.56 392.5 865.56 391.18C865.56 389.85 862.91 392.5 862.91 392.5L861.1 391.34L856.14 395.63L849.37 399.11L833.51 408.86L835.65 410.02C835.65 410.02 837.63 410.85 837.8 411.18C837.96 411.5 842.75 409.03 842.75 409.03L848.21 405.06L850.84 402.75C850.84 402.75 855.64 401.43 855.47 402.09C855.31 402.75 856.96 398.95 856.96 398.95L861.59 396.47L864.4 393.67L866.71 394.32L870.02 393.16L875.64 389.53L876.63 386.55L878.45 386.73L881.91 384.25L884.22 380.28L879.93 382.59ZM214.12 20.28C215.44 20.77 216.26 20.9401 219.08 21.1001C221.89 21.2601 222.22 20.9299 223.54 21.4299C224.85 21.9199 226.01 22.7601 226.51 21.5901C227 20.4401 227.67 20.44 228.16 19.78C228.65 19.12 228.16 18.4599 228.98 18.1299C229.81 17.7999 231.3 19.45 231.3 19.45C231.3 19.45 229.48 20.61 230.3 20.76C231.12 20.93 233.44 21.4201 234.6 21.5801C235.76 21.7501 234.77 22.08 236.75 22.26C238.73 22.42 239.56 22.0801 242.03 22.0801C244.51 22.0801 246.01 20.93 246.83 21.26C247.65 21.59 250.46 21.5899 251.28 21.4299C252.11 21.2599 254.1 19.45 253.27 19.45C252.44 19.45 249.3 18.62 247.98 18.46C246.66 18.3 242.52 18.1301 241.54 18.6201C240.54 19.1201 239.39 19.4501 238.73 19.1201C238.07 18.7901 241.54 16.15 243.85 16.48C246.17 16.81 249.63 16.1501 250.79 16.3201C251.95 16.4801 254.76 16.98 254.76 16.98C254.76 16.98 255.41 16.6499 255.58 16.1599C255.75 15.6599 255.91 15.1699 255.91 15.1699L257.56 16.6499C257.56 16.6499 268.46 12.1901 268.96 11.3601C269.46 10.5301 276.38 8.38006 277.39 8.56006C278.38 8.72006 285.15 5.74999 286.31 6.23999C287.45 6.73999 293.57 4.76001 293.57 4.76001C293.57 4.76001 298.04 3.76001 299.03 3.76001C300.02 3.76001 300.51 2.61002 299.03 2.77002C297.54 2.93002 285.14 2.93002 282.18 2.77002C279.2 2.61002 271.93 2.75993 270.78 2.92993C269.62 3.09993 263.01 4.91 260.2 4.75C257.39 4.58 248.31 5.89999 247.81 5.73999C247.31 5.56999 243.68 5.40991 244.01 5.40991C244.33 5.40991 239.21 9.53988 238.38 8.37988C237.56 7.21988 238.38 6.39997 237.56 7.21997C236.74 8.03997 236.9 11.8501 236.9 11.8501C237.89 12.5101 240.04 14.8201 241.53 13.8301C243.01 12.8401 243.84 13.33 244.33 13.49C244.82 13.66 242.02 15.8101 240.36 15.8101C238.71 15.8101 233.42 17.79 233.42 17.79C233.42 17.79 231.11 15.64 230.61 15.48C230.12 15.31 227.31 15.1499 226.82 15.1499C226.33 15.1499 225.66 14.6599 225.5 16.1399C225.34 17.6199 225.66 19.9301 224.02 19.6101C222.37 19.2801 221.87 19.94 221.04 19.45C220.21 18.95 222.2 16.4701 219.88 16.3101C217.57 16.1501 216.25 14.4999 214.93 17.1299C213.62 19.7799 212.8 19.78 214.12 20.28ZM154.32 30.51C153.82 31.34 158.61 31.67 158.93 31.01C159.28 30.34 162.24 30.8401 162.9 29.8501C163.56 28.8601 166.86 26.87 167.35 27.2C167.85 27.53 166.36 29.1801 165.87 29.3501C165.37 29.5101 167.53 29.6801 165.37 31.3401C163.23 32.9901 163.72 34.48 163.72 34.48C163.72 34.48 161.9 35.2999 163.22 35.6399C164.54 35.9799 167.02 37.1201 167.02 37.1201C167.02 37.1201 167.18 38.2801 167.18 38.6101C167.18 38.9401 168.01 39.93 169.82 38.78C171.65 37.62 175.28 36.31 175.77 36.8C176.26 37.29 177.42 36.63 179.08 36.47C180.72 36.31 182.05 35.8101 182.05 35.8101L184.19 36.1399C185.18 36.6299 186.01 35.48 187.67 36.47C189.31 37.46 191.62 37.46 191.62 37.46C191.62 37.46 193.94 35.65 194.43 35.48C194.93 35.31 195.92 35.15 195.42 33.99C194.93 32.83 193.11 31.0199 193.61 30.6799C194.1 30.3499 195.26 30.0199 195.09 26.8899C194.92 23.7599 195.42 24.2499 194.59 24.4199C193.77 24.5899 191.78 25.5801 191.78 25.5801L191.12 25.4099C190.79 26.3999 189.3 27.06 188.96 28.05C188.63 29.04 187.66 29.53 187.66 28.71C187.66 27.88 186.5 27.7201 186.32 27.0601C186.17 26.4001 184.67 26.57 183.85 26.73C183.02 26.89 180.71 25.2399 179.88 25.8999C179.06 26.5599 178.23 25.5701 177.57 24.0901C176.92 22.6101 176.09 21.4401 175.09 21.6001C174.1 21.7701 167.99 21.6001 167.99 21.6001L164.35 21.9299C164.35 21.9299 162.37 22.4299 162.37 23.4299C162.37 24.4199 162.04 25.0799 161.05 25.4099C160.05 25.7399 152.79 28.3799 152.79 28.3799C152.79 28.3799 154.81 29.69 154.32 30.51ZM206.19 26.5601L204.37 26.23C204.37 26.23 204.21 24.9099 203.71 24.9099C203.2 24.9099 201.72 26.73 201.72 26.73C201.72 26.73 203.87 27.56 204.2 28.22C204.53 28.88 205.35 29.7 205.35 30.2C205.35 30.69 210.8 28.55 210.8 28.55L213.78 27.0601C213.78 27.0601 213.93 27.3901 214.11 26.5701C214.28 25.7401 213.78 25.0899 214.11 24.9199C214.44 24.7599 215.76 22.6099 214.44 22.9399C213.12 23.2599 210.3 22.9399 208.99 23.4299C207.67 23.9299 206.02 22.7701 206.19 24.0901C206.35 25.4001 206.19 26.5601 206.19 26.5601ZM179.75 18.95C179.75 18.95 180.41 21.7599 181.74 20.9399C183.06 20.1099 186.85 22.93 186.85 23.25C186.85 23.59 188.17 23.4199 188.17 23.4199L193.96 21.4299L197.19 20.9399C197.19 20.9399 200.24 20.7701 200.73 21.1101C201.22 21.4401 203.71 20.29 203.71 20.29L204.7 18.6299L202.55 17.97L203.05 16.3201C203.05 16.3201 202.38 15.33 200.9 16.48C199.4 17.64 195.28 19.95 195.61 19.46C195.94 18.96 193.96 19.6199 193.14 18.6299C192.31 17.6399 191.16 17.47 191.16 17.47C191.16 17.47 188.84 16.65 188.02 16.98C187.19 17.31 189.5 15.3301 189.5 15.3301C189.5 15.3301 190 13.5099 189 13.6799C188.02 13.8499 179.92 15.6599 179.92 15.6599C179.92 15.6599 176.45 17.6399 175.79 17.1399C175.13 16.6499 172.65 17.47 172.65 17.47L174.3 18.46C174.8 17.96 179.75 18.95 179.75 18.95ZM216.6 12.1799C217.09 12.3399 221.06 13.4999 221.56 13.6599C222.05 13.8299 223.55 14.16 224.2 13.99C224.86 13.83 227.51 12.51 226.52 12.01C225.53 11.52 222.39 10.84 221.73 10.51C221.07 10.18 218.59 10.03 218.59 10.03L217.1 10.3501C216.76 10.8501 216.1 12.0199 216.6 12.1799ZM200.73 14.99C201.4 14.66 203.71 13.6699 203.71 13.6699L205.68 12.02L206.35 11.1799C206.35 11.1799 204.87 9.8701 204.2 10.3501C203.54 10.8501 200.06 12.3401 200.06 12.3401L199.9 13.5L197.19 14.6599C197.19 14.6599 200.07 15.32 200.73 14.99ZM230.48 14.5C231.13 14.67 233.12 14.6699 233.28 14.1699C233.44 13.6699 233.12 10.2 233.12 10.2C233.12 10.2 232.45 9.21988 231.63 9.37988C230.8 9.53988 228.16 10.8601 228.16 10.8601C227.99 11.3501 229.81 14.33 230.48 14.5ZM188.75 190.56C188.64 190.19 186.77 189.59 185.78 189.59C184.79 189.59 181.19 186.11 180.95 185.37C180.69 184.63 172.65 182.65 172.65 182.65C172.65 182.65 163.85 182.15 163.85 181.91C163.85 181.65 159.63 185.25 159.63 185.25V185.62C159.63 185.62 159.99 187.35 160.13 187.72C160.25 188.09 162.98 185.73 163.22 184.75C163.47 183.76 165.45 183.51 165.94 183.26C166.44 183.02 166.68 184.26 167.18 184.26C167.68 184.26 169.91 185 169.91 185L174.37 186.49L176.1 188.1C176.1 188.1 176.84 192.06 176.84 192.56C176.84 193.06 180.19 192.8 180.19 192.8L186.76 192.19C186.77 192.18 188.88 190.94 188.75 190.56ZM188.51 198.87C189.12 199.12 190.11 198.75 190.61 198.75C191.11 198.75 192.72 198.38 192.72 198.38C192.72 198.38 193.21 199.5 193.21 199.87C193.21 200.23 195.81 199.74 195.81 199.37C195.81 199 196.43 198.01 196.43 198.01L199.52 197.39C199.52 197.39 203.74 197.51 204.11 197.51C204.48 197.51 204.73 196.77 203.98 195.41C203.24 194.04 201.13 193.79 200.63 192.8C200.13 191.82 197.78 192.45 197.16 192.8C196.54 193.18 193.08 191.95 192.08 191.95C191.1 191.95 192.08 193.06 192.08 193.06L191.71 196.65H187.62L187.49 197.02C187.49 197.02 186.37 197.39 186.37 198.14C186.4 198.87 187.89 198.62 188.51 198.87Z" fill="#006FB9"/>
</svg>
