<svg width="94" height="71" viewBox="0 0 94 71" fill="none" xmlns="http://www.w3.org/2000/svg">
<path d="M93.59 47.3201V23.99C80.7 23.99 70.26 13.5399 70.26 0.659912H46.91C46.91 26.4299 67.81 47.3201 93.59 47.3201ZM46.91 47.3201V23.99C34.02 23.99 23.59 13.5399 23.59 0.659912H0.26001C0.26001 26.4299 21.14 47.3201 46.91 47.3201Z" fill="white"/>
<path d="M46.9 70.6599H70.24C70.24 57.7699 80.69 47.3301 93.57 47.3301V24C67.81 23.99 46.9 44.8799 46.9 70.6599ZM0.25 70.6599H23.58C23.58 57.7699 34.02 47.3301 46.9 47.3301V24C21.13 23.99 0.25 44.8799 0.25 70.6599Z" fill="white"/>
</svg>
