<svg width="71" height="71" viewBox="0 0 71 71" fill="none" xmlns="http://www.w3.org/2000/svg">
<path d="M0.159973 70.1699H17.65C17.65 60.5099 25.48 52.6799 35.14 52.6799V35.1799C15.83 35.1799 0.159973 50.8499 0.159973 70.1699ZM0.159973 35.1799H17.65C17.65 25.5199 25.48 17.6899 35.14 17.6899V0.199951C15.83 0.199951 0.159973 15.8599 0.159973 35.1799Z" fill="white"/>
<path d="M35.15 70.1699H52.64C52.64 60.5099 60.47 52.6799 70.13 52.6799V35.1799C50.82 35.1799 35.15 50.8499 35.15 70.1699ZM35.15 35.1799H52.64C52.64 25.5199 60.47 17.6899 70.13 17.6899V0.199951C50.82 0.199951 35.15 15.8499 35.15 35.1799Z" fill="white"/>
</svg>
