<svg width="106" height="71" viewBox="0 0 106 71" fill="none" xmlns="http://www.w3.org/2000/svg">
<path d="M0.670013 17.67V35.16C10.33 35.16 18.16 42.99 18.16 52.65H35.66C35.66 33.34 19.99 17.67 0.670013 17.67ZM35.66 17.67V35.16C45.32 35.16 53.15 42.99 53.15 52.65H70.64C70.64 33.34 54.98 17.67 35.66 17.67Z" fill="white"/>
<path d="M70.64 70.15H88.13C88.13 60.49 95.96 52.66 105.62 52.66V35.16C86.31 35.16 70.64 50.83 70.64 70.15ZM70.64 35.16H88.13C88.13 25.5 95.96 17.67 105.62 17.67V0.180054C86.31 0.180054 70.64 15.84 70.64 35.16Z" fill="white"/>
</svg>
