<svg width="71" height="71" viewBox="0 0 71 71" fill="none" xmlns="http://www.w3.org/2000/svg">
<path d="M35.15 0.22998H17.66C17.66 9.88998 9.82998 17.72 0.169983 17.72V35.22C19.48 35.22 35.15 19.55 35.15 0.22998ZM35.15 35.22H17.66C17.66 44.88 9.82998 52.71 0.169983 52.71V70.2C19.48 70.2 35.15 54.54 35.15 35.22Z" fill="white"/>
<path d="M35.15 70.2H52.64C52.64 60.54 60.47 52.71 70.13 52.71V35.21C50.82 35.2 35.15 50.87 35.15 70.2ZM35.15 35.2H52.64C52.64 25.54 60.47 17.71 70.13 17.71V0.219971C50.82 0.219971 35.15 15.88 35.15 35.2Z" fill="white"/>
</svg>
