<svg width="108" height="58" viewBox="0 0 108 58" fill="none" xmlns="http://www.w3.org/2000/svg">
<path d="M71.7 57.1299H80.45C80.45 52.2999 84.37 48.3799 89.2 48.3799V39.6299C79.53 39.6299 71.7 47.4699 71.7 57.1299ZM71.7 39.6299H80.45C80.45 34.7999 84.37 30.8799 89.2 30.8799V22.1299C79.53 22.1299 71.7 29.9599 71.7 39.6299Z" fill="#006FB9"/>
<path d="M54.2 57.1299H62.95C62.95 52.2999 66.87 48.3799 71.7 48.3799V39.6299C62.03 39.6299 54.2 47.4699 54.2 57.1299ZM54.2 39.6299H62.95C62.95 34.7999 66.87 30.8799 71.7 30.8799V22.1299C62.03 22.1299 54.2 29.9599 54.2 39.6299Z" fill="#006FB9"/>
<path d="M19.2 57.1299H27.95C27.95 52.2999 31.87 48.3799 36.7 48.3799V39.6299C27.03 39.6299 19.2 47.4699 19.2 57.1299ZM19.2 39.6299H27.95C27.95 34.7999 31.87 30.8799 36.7 30.8799V22.1299C27.03 22.1299 19.2 29.9599 19.2 39.6299Z" fill="#006FB9"/>
<path d="M36.7 57.1299H45.45C45.45 52.2999 49.37 48.3799 54.2 48.3799V39.6299C44.53 39.6299 36.7 47.4699 36.7 57.1299ZM36.7 39.6299H45.45C45.45 34.7999 49.37 30.8799 54.2 30.8799V22.1299C44.53 22.1299 36.7 29.9599 36.7 39.6299Z" fill="#006FB9"/>
<path d="M54.2044 -0.00251633L52.0396 5.9458L105.706 25.4774L107.871 19.5291L54.2044 -0.00251633Z" fill="#006FB9"/>
<path d="M0.539379 19.5593L2.70422 25.5076L56.3705 5.97595L54.2056 0.0276932L0.539379 19.5593Z" fill="#006FB9"/>
</svg>
